# Alias OBJ Model File
# Exported from SketchUp, (c) 2000-2012 Trimble Navigation Limited
# File units = meters

mtllib boutiques.mtl

g Mesh1 Boutiques_neogothiques Model

usemtl _9
v 49.4109 -4.73111 5.84033
vt 0.839489 -0.947214
vn -1 -1.80928e-015 8.35634e-017
v 49.4109 -3.75342 4.25918
vt 0.612216 -0.75147
v 49.4109 -4.73111 -2.56575
vt -0.368801 -0.947214
f 1/1/1 2/2/1 3/3/1

v 49.4109 1.01068e-014 4.25918
vt 0.612216 -1.58762e-014
f 2/2/1 1/1/1 4/4/1

vn 1 1.80928e-015 -8.35634e-017
f 3/3/2 2/2/2 1/1/2

v 49.4109 -3.75342 -2.56575
vt -0.368801 -0.75147
f 3/3/1 2/2/1 5/5/1

f 5/5/2 2/2/2 3/3/2

f 4/4/2 1/1/2 2/2/2

v 49.4109 8.486 5.84033
vt 0.839489 1.69898
f 6/6/1 4/4/1 1/1/1

v 49.4109 8.486 -2.56575
vt -0.368801 1.69898
f 4/4/1 6/6/1 7/7/1

f 1/1/2 4/4/2 6/6/2

f 7/7/2 6/6/2 4/4/2

usemtl treea
vt -1.26966 -1.04035
vn -0.709999 -0.704203 2.0134e-017
vt -0.958782 -1.04035
v 46.7934 11.125 3.02316
vt -1.06297 -0.927729
f 7/8/3 6/9/3 8/10/3

usemtl _19
vt 5.54869 11.7608
vn 0.709999 0.704203 -2.0134e-017
vt 5.88469 12.0976
vt 6.11021 11.336
f 8/11/4 6/12/4 7/13/4

usemtl treea
vt -2.47777 0.0803085
vn -0.271011 -0.815206 -0.511851
v 30.1891 11.125 11.8147
vt -1.74615 0.218368
vt -2.44098 0.218368
f 6/14/5 9/15/5 8/16/5

v 28.6445 8.486 16.8356
vt -1.60878 0.0803085
f 9/15/5 6/14/5 10/17/5

usemtl _19
vt 2.98483 11.336
vn 0.271011 0.815206 0.511851
vt 5.66205 11.336
vt 3.40804 11.7608
f 10/18/6 6/19/6 9/20/6

usemtl treea
vt -2.47777 -6.48417e-015
vn -0.46793 -3.48602e-014 -0.883766
vt -1.60878 0.400471
vt -2.47777 0.400471
f 1/21/7 10/22/7 6/23/7

v 28.6445 -4.73111 16.8356
vt -1.60878 -6.48417e-015
f 10/22/7 1/21/7 11/24/7

usemtl _14
vt 1 0
vn 0.46793 3.48602e-014 0.883766
vt 0 1.41995e-027
vt 1 1
f 11/25/8 1/26/8 10/27/8

vt 8.88178e-016 1
f 6/28/8 10/27/8 1/26/8

usemtl treea
vt -0.22703 1.58421e-016
vn 0.883766 -1.20192e-016 -0.46793
v 26.46 -2.396 12.7097
vt -0.0543794 0.0707526
vt -0.22703 0.400471
f 11/29/9 12/30/9 10/31/9

v 23.6305 -4.73111 7.36573
vt 0.169246 1.58421e-016
f 12/30/9 11/29/9 13/32/9

usemtl _14_1_
vt -0.323733 0.370938
vn -0.883766 1.20192e-016 0.46793
vt -0.219122 0.188055
vt -0.323733 0.148811
f 10/33/10 12/34/10 11/35/10

usemtl treea
v 26.46 7.873 12.7097
vt -0.0543794 0.381897
f 14/36/9 10/31/9 12/30/9

v 22.3285 8.486 4.90676
vt 0.272145 0.400471
f 10/31/9 14/36/9 15/37/9

usemtl _14_1_
vt -0.0212764 0.370938
vt -0.219122 0.360636
f 15/38/10 14/39/10 10/33/10

usemtl treea
v 26.121 7.873 12.0694
vt -0.0275851 0.381897
f 15/37/9 14/36/9 16/40/9

usemtl _14_1_
vt -0.202887 0.360636
f 16/41/10 14/39/10 15/38/10

usemtl treea
v 1.57082 7.873 25.8879
vt -0.526772 0.178098
vn 4.49092e-017 -1 -2.46985e-017
vt -1.43469 0.596789
vt -1.44723 0.577388
f 17/42/11 16/43/11 14/44/11

v 1.21148 7.873 25.2583
vt -0.513482 0.197173
f 16/43/11 17/42/11 18/45/11

usemtl _9
vt -0.174138 -5.05695
vn -4.49092e-017 1 2.46985e-017
vt -0.225791 -5.18299
vt -3.75463 -2.41641
f 18/46/12 17/47/12 16/48/12

usemtl treea
vn 0 -1 -0
v -9.22941 7.873 30.7865
vt -0.127355 0.0296731
f 17/42/13 19/49/13 18/45/13

v -9.53069 7.873 31.7658
vt -0.116213 0
f 20/50/13 19/49/13 17/42/13

v -12.0328 7.873 25.4918
vt -0.0236799 0.190098
f 20/50/13 21/51/13 19/49/13

v -12.6731 7.873 25.8309
vt 0 0.179825
f 21/51/13 20/50/13 22/52/13

usemtl _9
vt 1.82163 -5.17158
vn -0 1 0
vt 1.36994 -6.35981
vt 1.72959 -5.10371
f 22/53/14 20/54/14 21/55/14

usemtl treea
vn 0.883766 -4.69639e-018 -0.46793
v -12.6731 -2.396 25.8309
vt 0.193976 0.0707526
vt 0.193976 0.381897
f 20/36/15 23/56/15 22/57/15

v -9.53069 -2.396 31.7658
f 23/56/15 20/36/15 24/30/15

usemtl _14_1_
vt 1.54814 0.190338
vn -0.883766 4.69639e-018 0.46793
vt 1.54814 0.370138
vt 1.70491 0.190338
f 24/58/16 20/59/16 23/60/16

usemtl treea
vt -0.102705 0.381897
vn -0.46793 3.0191e-017 -0.883766
v 1.57082 -2.396 25.8879
vt -0.567261 0.0707526
vt -0.102705 0.0707526
f 20/61/17 25/62/17 24/63/17

v 1.57082 -1.57436 25.8879
vt -0.567261 0.0956478
f 25/62/17 20/61/17 26/64/17

usemtl _14_4_
vn 0.46793 -3.0191e-017 0.883766
vt 2.22045e-016 0
f 24/25/18 25/65/18 20/27/18

usemtl treea
v -9.22941 -2.396 30.7865
vt 0.127355 0.0296731
vn -3.72537e-018 1 -8.95899e-018
vt 0.116213 -6.33872e-019
vt 0.526772 0.178098
f 27/66/19 24/67/19 25/68/19

v -12.0328 -2.396 25.4918
vt 0.0236799 0.190098
f 28/69/19 24/67/19 27/66/19

vt 3.21715e-019 0.179825
f 24/67/19 28/69/19 23/70/19

usemtl _9
vt -1.82163 -5.17158
vn 3.72537e-018 -1 8.95899e-018
vt -1.72959 -5.10371
vt -1.36994 -6.35981
f 23/71/20 28/72/20 24/73/20

usemtl treea
vt 0.129499 0.381897
vn 0.46793 -1.50518e-016 0.883766
vt 0.102705 0.0707526
vt 0.129499 0.0707526
f 21/74/21 23/75/21 28/76/21

v -12.6731 0 25.8309
vt 0.102705 0.14335
f 23/75/21 21/74/21 29/77/21

usemtl _9
vt -3.24314 -0.479702
vn -0.46793 1.50518e-016 -0.883766
vt -3.34729 -0.479702
vt -3.24314 1.57625
f 28/78/22 23/79/22 21/80/22

vt -3.34729 5.55112e-016
f 29/81/22 21/80/22 23/79/22

usemtl treea
vt 0.102705 0.381897
f 29/77/21 21/74/21 22/82/21

usemtl _9
vt -3.34729 1.57625
f 22/83/22 21/80/22 29/81/22

usemtl treea
vt 0.193976 0.14335
f 22/57/15 23/56/15 29/84/15

usemtl _14_1_
vt 1.70491 0.370138
f 22/85/16 23/60/16 20/59/16

vt 1.70491 0.232289
f 29/86/16 23/60/16 22/85/16

usemtl treea
vt 0.0275851 0.0707526
vn -0.883766 -6.2489e-017 0.46793
vt -0.193976 0.381897
vt -0.193976 0.0707526
f 27/87/23 21/88/23 28/89/23

vt 0.0275851 0.381897
f 21/88/23 27/87/23 19/90/23

usemtl _14_1_
vt 1.52597 0.369962
vn 0.883766 6.2489e-017 -0.46793
vt 1.52597 0.190247
vt 1.38618 0.369962
f 19/91/24 27/92/24 21/93/24

usemtl treea
v 1.21148 -2.396 25.2583
vt 0.566411 0.0707526
vn 0.46793 9.48725e-017 0.883766
f 30/94/25 19/74/25 27/76/25

vt 0.566411 0.381897
f 19/74/25 30/94/25 18/95/25

usemtl _14_2_
vt 1.11022e-016 0
vn -0.46793 -9.48725e-017 -0.883766
vt 0 1
vt 1 2.77556e-017
f 27/96/26 19/97/26 30/98/26

f 18/27/26 30/98/26 19/97/26

usemtl treea
vn 0.46793 2.42999e-016 0.883766
vt 1.60878 0.381897
f 30/94/27 16/99/27 18/95/27

v 26.121 -2.396 12.0694
vt 1.60878 0.0707526
f 16/99/27 30/94/27 31/100/27

usemtl _14_5_
vn -0.46793 -2.42999e-016 -0.883766
vt 0 5.55112e-017
f 31/98/28 30/101/28 16/27/28

usemtl treea
vt 0.513482 0.197173
vt 1.43469 0.596789
f 30/102/19 25/68/19 31/103/19

f 27/66/19 25/68/19 30/102/19

usemtl _9
vt 0.225791 -5.18299
vt -1.32664 -6.16374
f 25/104/20 24/73/20 27/105/20

f 27/105/20 24/73/20 28/72/20

usemtl _14_1_
vt 1.38618 0.190247
f 28/106/24 21/93/24 27/92/24

usemtl _9
vt 0.174138 -5.05695
f 30/107/20 25/104/20 27/105/20

vt 3.75463 -2.41641
f 31/108/20 25/104/20 30/107/20

usemtl treea
vt 1.44723 0.577388
f 31/103/19 25/68/19 12/109/19

usemtl _9
vt 3.80336 -2.54461
f 12/110/20 25/104/20 31/108/20

usemtl treea
vn -0.46793 9.61039e-017 -0.883766
vt -1.60878 0.0707526
f 26/64/29 12/111/29 25/62/29

vt -1.60878 0.381897
f 12/111/29 26/64/29 14/112/29

usemtl _14_3_
vn 0.46793 -9.61039e-017 0.883766
vt 0 2.77556e-017
vt 1 0.0800115
f 25/98/30 12/113/30 26/114/30

f 14/97/30 26/114/30 12/113/30

usemtl treea
vt -0.567261 0.381897
f 14/112/29 26/64/29 17/115/29

usemtl _14_3_
f 17/27/30 26/114/30 14/97/30

usemtl treea
f 26/64/17 20/61/17 17/115/17

usemtl _14_4_
vt 2.22045e-016 0.0800115
f 26/116/18 20/27/18 25/65/18

f 17/97/18 20/27/18 26/116/18

usemtl _9
vt 1.32664 -6.16374
f 17/47/14 19/117/14 20/54/14

f 18/46/14 19/117/14 17/47/14

f 19/117/14 21/55/14 20/54/14

vt -3.80336 -2.54461
f 14/118/12 16/48/12 17/47/12

usemtl _14_1_
f 12/34/10 10/33/10 14/39/10

usemtl treea
vt -0.0275851 0.0707526
f 12/30/9 13/32/9 31/119/9

usemtl _14_1_
vt -0.0836238 0.148811
f 13/120/10 11/35/10 12/34/10

vt -0.202887 0.188055
f 31/121/10 13/120/10 12/34/10

usemtl treea
v 23.6305 0 7.36573
vt 0.169246 0.14335
f 32/122/9 31/119/9 13/32/9

f 15/37/9 31/119/9 32/122/9

f 15/37/9 16/40/9 31/119/9

usemtl _14_1_
f 31/121/10 16/41/10 15/38/10

vt -0.0836238 0.228322
f 32/123/10 31/121/10 15/38/10

f 13/120/10 31/121/10 32/123/10

usemtl treea
v 22.3285 -2.88765e-015 4.90676
vt 0.272145 0.14335
f 15/37/9 32/122/9 33/124/9

usemtl _14_1_
vt -0.0212764 0.228322
f 33/125/10 32/123/10 15/38/10

usemtl _14_5_
vt 1.11022e-016 1
f 18/126/28 16/27/28 30/101/28

usemtl treea
v 24.0786 9.89288 3.98015
vt 0.272145 1.38004
vn 0.511851 -0.815206 -0.271011
vt -0.22703 1.30644
vt 0.272145 1.30644
f 34/127/31 10/128/31 15/129/31

v 25.6113 11.125 3.16864
vt 0.272145 1.4445
f 10/128/31 34/127/31 35/130/31

usemtl _19
vt 4.5227 11.336
vn -0.511851 0.815206 0.271011
vt 4.5227 11.5625
f 15/131/32 10/18/32 34/132/32

vt 4.5227 11.7608
f 35/133/32 34/132/32 10/18/32

usemtl treea
vt -0.0896598 1.4445
f 10/128/31 35/130/31 9/134/31

usemtl _19
f 9/20/32 35/133/32 10/18/32

usemtl treea
v 28.894 8.486 1.43051
vt -0.272145 -1.02605
vn -0.511851 -0.815206 0.271011
vt 0.0896598 -0.887994
vt -0.272145 -0.887994
f 36/135/33 9/136/33 35/137/33

v 31.7338 8.486 6.79381
vt -0.0477108 -1.02605
f 9/136/33 36/135/33 37/138/33

usemtl _19
vn 0.511851 0.815206 -0.271011
vt 4.5227 12.1855
f 35/133/34 9/20/34 36/139/34

vt 3.83126 12.1855
f 37/140/34 36/139/34 9/20/34

usemtl treea
vt 1.88352 0.200075
vn 0.271011 -0.815206 0.511851
vt 2.44098 0.338135
vt 1.74615 0.338135
f 37/141/35 8/142/35 9/143/35

v 42.3863 8.486 1.15361
vt 2.32929 0.200075
f 8/142/35 37/141/35 38/144/35

usemtl _19
vn -0.271011 0.815206 -0.511851
vt 3.83126 11.336
f 9/20/36 8/11/36 37/145/36

f 8/11/6 9/20/6 6/19/6

vt 5.20459 11.336
f 38/146/36 37/145/36 8/11/36

usemtl treea
v 48.338 8.486 -1.99765
vt 2.57834 0.200075
f 8/142/35 38/144/35 39/147/35

usemtl _19
vt 5.97189 11.336
f 39/148/36 38/146/36 8/11/36

usemtl treea
vt 2.62324 0.200075
f 8/142/35 39/147/35 7/149/35

usemtl _19
f 7/13/36 39/148/36 8/11/36

usemtl _9
v 49.4109 1.01068e-014 -2.56575
vt -0.368801 -1.58762e-014
f 4/4/1 7/7/1 40/150/1

f 40/150/2 7/7/2 4/4/2

g Mesh2 Boutiques_neogothiques Model

v 43.7771 0 -63.1877
vt 10.6257 -2.22045e-016
vn 0.946669 3.76692e-017 0.322207
v 42.6197 6.62 -59.7872
vt 10.1094 1.32539
v 42.6197 0 -59.7872
vt 10.1094 -2.22045e-016
f 41/151/37 42/152/37 43/153/37

v 42.6197 6.86725 -59.7872
vt 10.1094 1.37489
f 42/152/37 41/151/37 44/154/37

vn -0.946669 -3.76692e-017 -0.322207
f 43/153/38 42/152/38 41/151/38

vt 9.4354 1.32539
vn 0.46793 7.62749e-018 0.883766
v 37.5619 0 -57.1093
vt 8.61277 0
vt 9.4354 0
f 42/155/39 45/156/39 43/157/39

v 37.5619 6.62 -57.1093
vt 8.61277 1.32539
f 45/156/39 42/155/39 46/158/39

usemtl treea
vt 3.3915 0.14335
vn -0.46793 -7.62749e-018 -0.883766
vt 3.17985 0.14335
vt 3.3915 0.343932
f 43/159/40 45/160/40 42/161/40

vt 3.17985 0.343932
f 46/162/40 42/161/40 45/160/40

vt 3.3915 0.351424
vn 0.46793 0 0.883766
f 44/163/41 46/162/41 42/161/41

v 37.5619 6.86725 -57.1093
vt 3.17985 0.351424
f 46/162/41 44/163/41 47/164/41

vn -0.46793 -0 -0.883766
f 42/161/42 46/162/42 44/163/42

f 47/164/42 44/163/42 46/162/42

usemtl _19
vt -6.60467 15.4175
vn -0.276189 -0.351681 0.89445
v 35.5075 9.39525 -60.9894
vt -5.95261 15.8898
vt -5.95261 15.4175
vn 0.233493 0.866607 0.440991
f 44/165/43 48/166/43 47/167/44

usemtl treea
vt 3.17985 1.62054
vn -0.233493 -0.866607 -0.440991
vt 3.17985 1.77404
vn 0.276189 0.351681 -0.89445
vt 3.3915 1.62054
f 47/168/45 48/169/46 44/170/46

vt -3.52835 1.45934
vt -3.32885 1.62341
v 40.5232 9.39525 -64.1235
vt -3.54757 1.62341
vn -0.247405 -0.884323 -0.395935
f 44/171/43 48/172/43 49/173/47

usemtl _19
vt -6.62514 15.9243
vn 0.247405 0.884323 0.395935
f 49/174/48 48/166/46 44/165/46

usemtl treea
vt 3.54757 -1.22374
vn 0.247405 -0.884323 0.395935
vt 3.32885 -1.22374
vn 0.910307 0.335761 0.242087
v 38.4266 6.86725 -68.4597
vt 3.5668 -1.3878
f 49/175/49 48/176/50 50/177/50

usemtl _19
vt -6.64562 16.4311
vn -0.910307 -0.335761 -0.242087
vn -0.247405 0.884323 -0.395935
f 50/178/51 48/166/51 49/174/52

v 33.612 6.86725 -65.9105
vt -6.61763 15.9238
vn -0.203447 0.900536 -0.384244
f 50/178/50 51/179/53 48/166/50

usemtl _9
vt -9.48605 1.37489
vn -0.46793 -4.55973e-020 -0.883766
v 33.612 -3.60956e-015 -65.9105
vt -8.70297 -7.77156e-016
vt -8.70297 1.37489
f 50/180/54 52/181/54 51/182/54

v 38.4266 -1.15506e-014 -68.4597
vt -9.48605 -2.33147e-015
f 52/181/54 50/180/54 53/183/54

vn 0.46793 4.55973e-020 0.883766
f 53/183/55 50/180/55 52/181/55

vt -1.36861 1.37489
vn 0.380094 -9.42024e-018 -0.924948
v 42.1338 1.15506e-014 -66.9363
vt -1.94472 2.44249e-015
vt -1.36861 -2.22045e-015
f 50/184/56 54/185/56 53/186/56

v 42.1338 6.86725 -66.9363
vt -1.94472 1.37489
f 54/185/56 50/184/56 55/187/56

vn -0.380094 9.42024e-018 0.924948
f 53/186/57 54/185/57 50/184/57

f 55/187/57 50/184/57 54/185/57

usemtl treea
vt 0.487329 -2.45301
vn -0.23499 -0.785988 0.571842
vt 0.471773 -2.32912
vt 0.339104 -2.45301
f 55/188/58 49/189/58 50/190/58

v 43.7771 6.86725 -63.1877
vt -2.37798 -1.70813
vn -0.637899 -0.717558 0.279634
vt -2.45799 -1.59816
vt -2.52935 -1.70813
f 56/191/59 49/192/59 55/193/59

usemtl _19
vt -6.29569 15.6371
vn 0.566791 0.800958 0.192912
f 56/194/60 49/174/60 44/165/60

usemtl treea
vt 3.86413 -0.344008
vn -0.566791 -0.800958 -0.192912
vt 3.99096 -0.216073
vt 3.99697 -0.344008
f 44/195/61 49/196/61 56/197/61

usemtl _19
vt -6.75118 15.5553
vn 0.637899 0.717558 -0.279634
f 55/198/62 49/174/62 56/194/62

vt -7.17611 15.6921
vn 0.23499 0.785988 -0.571842
f 50/199/63 49/174/63 55/198/63

usemtl _9
vt 5.79209 1.37489
vn 0.915865 1.63817e-017 -0.401485
vt 6.38042 2.22045e-015
vt 6.38042 1.37489
f 56/200/64 54/201/64 55/202/64

vt 5.79209 -1.11022e-016
f 54/201/64 56/200/64 41/203/64

vn -0.915865 -1.63817e-017 0.401485
f 41/203/65 56/200/65 54/201/65

vt 10.6257 1.37489
f 44/154/37 41/151/37 56/204/37

f 44/154/38 41/151/38 42/152/38

f 56/204/38 41/151/38 44/154/38

f 55/202/65 54/201/65 56/200/65

f 51/182/55 52/181/55 50/180/55

usemtl treea
vt -3.17985 -1.43546
vt -3.20306 -1.61163
vn 0.203447 -0.900536 0.384244
vt -3.40454 -1.61163
f 48/205/51 51/206/66 50/207/51

g Mesh3 Boutiques_neogothiques Model

l 4 2

l 4 40

l 40 7

l 6 7

l 6 1

l 10 6

l 11 10

l 11 1

l 13 11

l 13 32

l 32 33

l 33 15

l 15 10

l 34 15

l 35 34

l 9 35

l 37 9

l 37 38

l 36 37

l 36 35

l 38 39

l 39 7

l 8 7

l 8 9

l 8 6

l 9 10

l 1 3

l 5 3

l 2 5

g Mesh4 Boutiques_neogothiques Model

l 12 14

l 31 12

l 16 31

l 14 16

l 17 14

l 17 26

l 20 17

l 24 20

l 24 25

l 23 24

l 29 23

l 22 29

l 22 20

l 21 22

l 28 21

l 28 27

l 23 28

l 19 27

l 21 19

l 19 18

l 18 30

l 18 16

l 17 18

l 30 27

l 31 30

l 25 12

l 26 25

g Mesh5 Boutiques_neogothiques Model

l 42 44

l 43 42

l 43 41

l 45 43

l 46 45

l 46 42

l 47 46

l 47 44

l 48 47

l 49 48

l 44 49

l 44 56

l 41 56

l 41 54

l 54 55

l 54 53

l 53 50

l 53 52

l 52 51

l 50 51

l 50 49

l 55 50

l 49 55

l 49 56

l 56 55

l 51 48

