# Alias OBJ Model File
# Exported from SketchUp, (c) 2000-2012 Trimble Navigation Limited
# File units = meters

mtllib chapelleC.mtl

g Mesh1 Chapelle_Ste_Catherine Model

usemtl _14
v 31.7338 16.6725 6.79381
vt -0.0760385 0.415382
vn -0.46793 3.77211e-009 -0.883766
v 48.338 -3.125 -1.99765
vt -0.601639 1.139e-010
v 31.7338 -3.125 6.79381
vt -0.0760385 1.139e-010
f 1/1/1 2/2/1 3/3/1

v 48.338 0 -1.99765
vt -0.601639 0.0655672
f 2/2/1 1/1/1 4/4/1

vn 0.46793 -3.77211e-009 0.883766
f 3/3/2 2/2/2 1/1/2

f 4/4/2 1/1/2 2/2/2

v 48.338 12.909 -1.99765
vt -0.601639 0.336418
f 4/4/1 1/1/1 5/5/1

f 5/5/2 1/1/2 4/4/2

v 48.338 16.6725 -1.99765
vt -0.601639 0.415382
f 5/5/1 1/1/1 6/6/1

f 6/6/2 1/1/2 5/5/2

v 31.6044 20.7285 3.14378
vt -0.12062 0.41326
vn -0.363569 -0.629533 -0.686663
vt -0.601639 0.303732
vt -0.0760385 0.303732
f 7/7/3 6/8/3 1/9/3

v 45.3918 20.7285 -4.15629
vt -0.557058 0.41326
f 6/8/3 7/7/3 8/10/3

usemtl _19
vt 3.83126 13.0109
vn 0.363569 0.629533 0.686663
vt 5.97189 13.0109
vt 4.01283 13.4976
f 1/11/4 6/12/4 7/13/4

vt 5.79032 13.4976
f 8/14/4 7/13/4 6/12/4

usemtl _14
vt 0.12062 0.364463
vn 0.363569 -0.629533 0.686663
v 29.0899 16.6725 0.756556
vt 0.0897042 0.254934
vt 0.557058 0.364463
f 7/15/5 9/16/5 8/17/5

v 28.6582 16.6725 0.985136
vt 0.0760385 0.254934
f 9/16/5 7/15/5 10/18/5

usemtl _19
vn -0.363569 0.629533 -0.686663
vt 3.88692 13.0109
f 10/11/6 7/13/6 9/19/6

usemtl _14
vt 0.0516757 0.4989
vn 0.822554 -0.365688 -0.43552
v 29.0035 16.6725 1.63733
vt 0.122967 0.407466
vt 0.143612 0.407466
f 7/20/7 11/21/7 10/22/7

v 29.113 16.6725 1.84414
vt 0.11642 0.407466
f 7/20/7 12/23/7 11/21/7

v 29.9954 16.6725 3.51054
vt 0.0636707 0.407466
f 7/20/7 13/24/7 12/23/7

vt -0.0402603 0.407466
f 13/24/7 7/20/7 1/25/7

usemtl _19
vn -0.822554 0.365688 0.43552
vt 4.2289 13.1297
f 1/11/8 7/13/8 13/26/8

vt 4.43072 13.1899
f 12/27/8 13/26/8 7/13/8

usemtl _14
vt 0.0636707 0.415382
vn 0.883766 -1.83273e-016 -0.46793
v 28.894 -3.125 1.43051
vt 0.129513 1.04519e-017
vt 0.11642 0.415382
f 13/28/9 14/29/9 12/30/9

vt -0.0402603 1.04519e-017
f 13/28/9 3/31/9 14/29/9

vt -0.0402603 0.415382
f 3/31/9 13/28/9 1/32/9

vn -0.883766 1.83273e-016 0.46793
f 1/32/10 13/28/10 3/31/10

f 14/29/10 3/31/10 13/28/10

f 12/30/10 14/29/10 13/28/10

v 28.894 -1.55259 1.43051
vt 0.129513 0.0329915
f 12/30/9 14/29/9 15/33/9

f 15/33/10 14/29/10 12/30/10

v 28.894 15.8675 1.43051
vt 0.129513 0.398492
f 16/34/9 12/30/9 15/33/9

f 15/33/10 12/30/10 16/34/10

usemtl _19
vt 4.45577 13.1974
f 11/35/8 12/27/8 7/13/8

vt 4.53476 13.221
f 10/36/8 11/35/8 7/13/8

usemtl _14
v 28.894 16.6725 1.43051
vt 0.129513 0.407466
f 10/22/7 11/21/7 17/37/7

usemtl _19
vt 4.48082 13.2049
f 17/38/8 11/35/8 10/36/8

f 8/14/6 9/19/6 7/13/6

usemtl _14
v 31.3612 16.6725 -0.446023
vt 0.161601 0.254934
f 18/39/5 8/17/5 9/16/5

v 36.6084 16.6725 -3.22424
vt 0.327698 0.254934
f 19/40/5 8/17/5 18/39/5

v 38.8796 16.6725 -4.42682
vt 0.399594 0.254934
f 20/41/5 8/17/5 19/40/5

v 45.2624 16.6725 -7.80633
vt 0.601639 0.254934
f 8/17/5 20/41/5 21/42/5

usemtl _19
vt 5.14901 13.0109
f 21/12/6 20/43/6 8/14/6

vt 4.8562 13.0109
f 19/44/6 8/14/6 20/43/6

vt 4.17973 13.0109
f 18/45/6 8/14/6 19/44/6

f 9/19/6 8/14/6 18/45/6

usemtl _14
vt -0.143612 0.221602
vn -0.822554 -0.365688 0.43552
vt 0.0402603 0.221602
vt -0.0516757 0.313036
f 21/46/11 6/47/11 8/48/11

usemtl _19
vn 0.822554 0.365688 -0.43552
vt 5.26839 13.221
f 8/14/12 6/12/12 21/49/12

g Mesh2 Chapelle_Ste_Catherine Model

l 5 4

l 6 5

l 6 1

l 21 6

l 8 21

l 8 6

l 8 7

l 7 1

l 10 7

l 9 10

l 18 9

l 19 18

l 20 19

l 21 20

l 17 10

l 11 17

l 12 11

l 12 16

l 13 12

l 1 13

l 3 1

l 2 3

l 4 2

l 3 14

l 14 15

l 16 15

