# Alias OBJ Model File
# Exported from SketchUp, (c) 2000-2012 Trimble Navigation Limited
# File units = meters

mtllib chapelleL.mtl

g Mesh1 Group1 Chapelle_St_Laurent Model

usemtl _9
v 22.9673 10.0972 -65.8313
vt 0.402872 0.704537
vn -0.712898 0 -0.701268
v 22.7417 6.57825 -65.5637
vt 0.453231 0
vn -0.811643 0 -0.584153
v 22.7417 10.0972 -65.5637
vt 0.453231 0.704537
f 1/1/1 2/2/2 3/3/2

v 22.9673 6.57825 -65.8313
vt 0.402872 0
f 2/2/2 1/1/1 4/4/1

vt -11.1085 2.02156
vn 0.811643 -0 0.584153
vt -11.1085 1.31703
vt -11.1588 2.02156
vn 0.712898 -0 0.701268
f 3/5/3 2/6/3 1/7/4

v 22.5596 6.57825 -65.2648
vt 0.50359 2.22045e-016
vn -0.891342 0 -0.453331
vt 0.453231 2.22045e-016
f 5/8/5 3/3/2 2/9/2

v 22.5596 10.0972 -65.2648
vt 0.50359 0.704537
f 3/3/2 5/8/5 6/10/5

vt -10.5489 2.02156
vn 0.891342 -0 0.453331
vt -10.5489 1.31703
vt -10.5992 2.02156
f 6/11/6 5/12/6 3/13/3

v 22.4253 6.57825 -64.9416
vt 0.553949 2.22045e-016
vn -0.950125 0 -0.311871
f 7/14/7 6/10/5 5/8/5

v 22.4253 10.0972 -64.9416
vt 0.553949 0.704537
f 6/10/5 7/14/7 8/15/7

vt -9.74123 2.02156
vn 0.950125 -0 0.311871
vt -9.74123 1.31703
vt -9.79154 2.02156
f 8/16/8 7/17/8 6/18/6

v 22.3419 6.57825 -64.6017
vt 0.604308 0
vn -0.971221 0 -0.238181
vt 0.553949 0
f 9/19/9 8/15/7 7/20/7

v 22.3419 10.0972 -64.6017
vt 0.604308 0.704537
f 8/15/7 9/19/9 10/21/9

vt -8.70437 2.02156
vn 0.971221 -0 0.238181
vt -8.70437 1.31703
vt -8.75468 2.02156
f 10/22/10 9/23/10 8/24/8

v 17.5223 8.33625 -62.0498
vt 10.3307 1.669
vn 0.46793 -7.81835e-016 0.883766
vt 11.1145 1.31703
vt 11.1145 2.02156
f 11/25/11 9/26/11 10/27/11

v 30.3746 7.21911e-016 -68.8548
vt 12.421 5.41708e-016
f 11/25/11 12/28/11 9/26/11

v 17.5223 0 -62.0498
vt 10.3307 3.97174e-016
f 12/28/11 11/25/11 13/29/11

usemtl _14_1_
vt 1.32665 0.189552
vn -0.46793 7.81835e-016 -0.883766
vt 1.32665 0.338214
vt 1.67244 0.189552
f 13/30/12 11/31/12 12/32/12

vt 1.45632 0.306864
f 9/33/12 12/32/12 11/31/12

usemtl _9
v 25.555 6.57825 -66.3029
vt 11.6371 1.31703
f 9/26/11 12/28/11 14/34/11

usemtl _14_1_
vt 1.54277 0.306864
f 14/35/12 12/32/12 9/33/12

usemtl _9
v 30.3746 8.33625 -68.8548
vt 12.421 1.669
f 15/36/11 14/34/11 12/28/11

v 25.555 10.0972 -66.3029
vt 11.6371 2.02156
f 14/34/11 15/36/11 16/37/11

usemtl _14_1_
vt 1.67244 0.338214
f 12/32/12 14/35/12 15/38/12

vt 1.54277 0.369619
f 16/39/12 15/38/12 14/35/12

usemtl _9
v 30.3746 10.0972 -68.8548
vt 12.421 2.02156
f 16/37/11 15/36/11 17/40/11

usemtl _14_1_
vt 1.67244 0.369619
f 17/41/12 15/38/12 16/39/12

usemtl _9
vt 1.75885 2.02156
vn 0.883766 1.70845e-016 -0.46793
v 30.7624 8.33625 -68.1223
vt 1.63972 1.669
vt 1.75885 1.669
f 17/42/13 18/43/13 15/44/13

v 30.7624 10.0972 -68.1223
vt 1.63972 2.02156
f 18/43/13 17/42/13 19/45/13

vn -0.883766 -1.70845e-016 0.46793
f 19/45/14 17/42/14 18/43/14

vt 4.36605 13.7854
vn 1.63037e-015 1 3.07923e-015
v 25.9428 10.0972 -65.5705
vt 3.72902 13.1278
vt 4.42179 13.6387
f 17/46/15 20/47/15 19/48/15

vt 3.67327 13.2745
f 20/47/15 17/46/15 16/49/15

vn -1.63037e-015 -1 -3.07923e-015
f 16/49/16 17/46/16 20/47/16

f 19/48/16 20/47/16 17/46/16

v 25.9428 8.33625 -65.5705
vt 11.6371 1.669
vn 0.46793 -3.62487e-015 0.883766
f 21/50/17 19/40/17 20/37/17

v 30.522 8.33625 -67.9951
vt 12.3819 1.669
f 22/51/17 19/40/17 21/50/17

f 19/40/17 22/51/17 18/36/17

vn -0.46793 3.62487e-015 -0.883766
f 18/36/18 22/51/18 19/40/18

f 21/50/18 19/40/18 22/51/18

f 20/37/18 19/40/18 21/50/18

vn 0.46793 -3.60963e-018 0.883766
v 24.3362 8.33625 -64.7199
vt 11.3758 1.669
f 20/37/19 23/52/19 21/50/19

v 24.3362 10.0972 -64.7199
vt 11.3758 2.02156
f 23/52/19 20/37/19 24/53/19

vn -0.46793 3.60963e-018 -0.883766
f 21/50/20 23/52/20 20/37/20

v 31.4471 8.33625 -62.6007
vt -4.52021 12.5332
vn -2.6133e-016 -1 -5.03553e-017
vt -3.49809 12.9575
vt -3.72902 13.1278
f 25/54/21 23/55/21 21/56/21

v 22.7297 8.33625 -63.8692
vt -3.26717 12.7872
f 25/54/21 26/57/21 23/55/21

v 22.0828 8.33625 -57.6425
vt -3.17418 11.5406
f 27/58/21 26/57/21 25/54/21

v 18.1492 8.33625 -61.444
vt -2.60877 12.3017
f 26/57/21 27/58/21 28/59/21

vn 2.6133e-016 1 5.03553e-017
f 28/59/22 27/58/22 26/57/22

f 25/54/22 26/57/22 27/58/22

f 23/55/22 26/57/22 25/54/22

vn 0.46793 -4.79839e-018 0.883766
vt 11.1145 1.669
f 24/53/23 26/60/23 23/52/23

v 22.7297 10.0972 -63.8692
f 26/60/23 24/53/23 29/27/23

vn -0.46793 4.79839e-018 -0.883766
f 23/52/24 26/60/24 24/53/24

f 29/27/24 24/53/24 26/60/24

vt 3.26889 13.1265
vn 3.35864e-016 1 -4.89471e-016
vt 3.26717 12.7872
vt 3.49809 12.9575
f 3/61/25 29/62/25 24/63/25

vt 3.24271 13.0666
f 6/64/25 29/62/25 3/61/25

vt 3.22341 13.0019
f 8/65/25 29/62/25 6/64/25

vt 3.21143 12.9339
f 29/62/25 8/65/25 10/66/25

vn -3.35864e-016 -1 4.89471e-016
f 10/66/26 8/65/26 29/62/26

f 6/64/26 29/62/26 8/65/26

f 3/61/26 29/62/26 6/64/26

f 24/63/26 29/62/26 3/61/26

vt 3.30132 13.1801
f 3/61/25 24/63/25 1/67/25

f 1/67/26 24/63/26 3/61/26

v 23.2311 10.0972 -66.0613
vt 3.33924 13.2261
f 1/67/25 24/63/25 30/68/25

f 30/68/26 24/63/26 1/67/26

v 23.527 10.0972 -66.2483
vt 3.38177 13.2635
f 30/68/25 24/63/25 31/69/25

f 31/69/26 24/63/26 30/68/26

v 23.8479 10.0972 -66.3879
vt 3.42791 13.2915
f 31/69/25 24/63/25 32/70/25

f 32/70/26 24/63/26 31/69/26

v 24.1865 10.0972 -66.4768
vt 3.47656 13.3093
f 32/70/25 24/63/25 33/71/25

f 33/71/26 24/63/26 32/70/26

v 24.5346 10.0972 -66.513
vt 3.5266 13.3165
f 33/71/25 24/63/25 34/72/25

f 34/72/26 24/63/26 33/71/26

f 34/72/25 24/63/25 20/47/25

f 20/47/26 24/63/26 34/72/26

f 24/53/20 20/37/20 23/52/20

v 24.8842 10.0972 -66.4956
vt 3.57685 13.3131
f 34/72/25 20/47/25 35/73/25

f 35/73/26 20/47/26 34/72/26

v 25.227 10.0972 -66.425
vt 3.62613 13.2989
f 35/73/25 20/47/25 36/74/25

f 36/74/26 20/47/26 35/73/26

f 36/74/25 20/47/25 16/49/25

f 16/49/26 20/47/26 36/74/26

vt 0 2.22045e-016
vn 0.348912 0 -0.937155
vt 0.050359 0.704537
vn 0.276107 0 -0.961127
vt 0 0.704537
f 14/75/27 36/76/28 16/77/27

v 25.227 6.57825 -66.425
vt 0.050359 2.22045e-016
f 36/76/28 14/75/27 37/78/28

vt -6.37426 1.31703
vn -0.276107 -0 0.961127
vt -6.42457 1.31703
vn -0.348912 -0 0.937155
vt -6.37426 2.02156
f 37/79/29 14/80/30 36/81/29

vt -9.46148 9.74969
vn 0 -1 -0
v 24.8842 6.57825 -66.4956
vt -9.36506 9.78827
vt -9.41433 9.77414
f 14/82/31 38/83/31 37/84/31

v 24.5346 6.57825 -66.513
vt -9.31481 9.79175
f 14/82/31 39/85/31 38/83/31

v 24.1865 6.57825 -66.4768
vt -9.26477 9.78451
f 14/82/31 40/86/31 39/85/31

v 23.8479 6.57825 -66.3879
vt -9.21611 9.7667
f 14/82/31 41/87/31 40/86/31

v 23.527 6.57825 -66.2483
vt -9.16998 9.73875
f 14/82/31 42/88/31 41/87/31

v 23.2311 6.57825 -66.0613
vt -9.12745 9.70131
f 14/82/31 43/89/31 42/88/31

vt -9.08952 9.65527
f 14/82/31 4/90/31 43/89/31

vt -9.05709 9.60169
f 14/82/31 2/91/31 4/90/31

vt -9.03092 9.54185
f 14/82/31 5/92/31 2/91/31

vt -9.01161 9.47714
f 14/82/31 7/93/31 5/92/31

vt -8.99963 9.40908
f 7/93/31 14/82/31 9/94/31

vn -0 1 0
f 9/94/32 14/82/32 7/93/32

f 5/92/32 7/93/32 14/82/32

vt -9.79154 1.31703
f 5/95/6 6/18/6 7/17/8

f 2/91/32 5/92/32 14/82/32

vt -10.5992 1.31703
f 2/96/3 3/13/3 5/12/6

f 4/90/32 2/91/32 14/82/32

vt -11.1588 1.31703
f 4/97/4 1/7/4 2/6/3

vt 0.352513 2.22045e-016
vn -0.597424 0 -0.801926
vt 0.402872 2.22045e-016
f 1/1/1 43/98/33 4/99/1

vt 0.352513 0.704537
f 43/98/33 1/1/1 30/100/33

vt -11.4067 1.31703
vt -11.457 1.31703
vn 0.597424 -0 0.801926
vt -11.4067 2.02156
f 4/101/4 43/102/34 1/103/4

f 43/89/32 4/90/32 14/82/32

f 42/88/32 43/89/32 14/82/32

vt 0.302154 2.22045e-016
vn -0.46793 0 -0.883766
f 30/100/33 42/104/35 43/98/33

vt 0.302154 0.704537
f 42/104/35 30/100/33 31/105/35

vt -11.4367 1.31703
vt -11.4871 1.31703
vn 0.46793 -0 0.883766
vt -11.4367 2.02156
f 43/106/34 42/107/36 30/108/34

vt -11.4871 2.02156
f 31/109/36 30/108/34 42/107/36

vt 0.251795 2.22045e-016
vn -0.327455 0 -0.944867
f 31/105/35 41/110/37 42/104/35

vt 0.251795 0.704537
f 41/110/37 31/105/35 32/111/37

vt -11.1978 1.31703
vt -11.2481 1.31703
vn 0.327455 -0 0.944867
vt -11.1978 2.02156
f 42/112/36 41/113/38 31/114/36

f 41/87/32 42/88/32 14/82/32

f 40/86/32 41/87/32 14/82/32

vt 0.201436 2.22045e-016
vn -0.179297 0 -0.983795
f 32/111/37 40/115/39 41/110/37

vt 0.201436 0.704537
f 40/115/39 32/111/37 33/116/39

vt -10.6955 1.31703
vt -10.7458 1.31703
vn 0.179297 -0 0.983795
vt -10.6955 2.02156
f 41/117/38 40/118/40 32/119/38

vt -10.7458 2.02156
f 33/120/40 32/119/38 40/118/40

vt 0.151077 2.22045e-016
vn -0.0269308 0 -0.999637
f 33/116/39 39/121/41 40/115/39

vt 0.151077 0.704537
f 39/121/41 33/116/39 34/122/41

vt -9.94158 1.31703
vt -9.99189 1.31703
vn 0.0269308 -0 0.999637
vt -9.94158 2.02156
f 40/123/40 39/124/42 33/125/40

f 39/85/32 40/86/32 14/82/32

f 38/83/32 39/85/32 14/82/32

vt 0.100718 -2.22045e-016
vn 0.126067 0 -0.992022
vt 0.151077 -2.22045e-016
f 34/122/41 38/126/43 39/127/41

vt 0.100718 0.704537
f 38/126/43 34/122/41 35/128/43

vt -8.9538 1.31703
vt -9.00411 1.31703
vn -0.126067 -0 0.992022
vt -8.9538 2.02156
f 39/129/42 38/130/44 34/131/42

vt -9.00411 2.02156
f 35/132/44 34/131/42 38/130/44

vt 0.050359 -2.22045e-016
f 35/128/43 37/133/28 38/126/43

f 37/133/28 35/128/43 36/76/28

vt -7.75532 1.31703
vt -7.80563 1.31703
vt -7.75532 2.02156
f 38/134/44 37/135/29 35/136/44

f 37/84/32 38/83/32 14/82/32

vt -7.80563 2.02156
f 36/137/29 35/136/44 37/135/29

vt -9.99189 2.02156
f 34/138/42 33/125/40 39/124/42

vt -11.2481 2.02156
f 32/139/38 31/114/36 41/113/38

vt -11.457 2.02156
f 30/140/34 1/103/4 43/102/34

vt -8.75468 1.31703
f 7/141/8 8/24/8 9/23/10

vt -6.42457 2.02156
f 16/142/30 36/81/29 14/80/30

vn -2.44555e-015 1 -4.61884e-015
v 17.9101 10.0972 -61.3174
vt 2.5744 12.2763
f 10/66/45 44/143/45 29/62/45

v 17.5223 10.0972 -62.0498
vt 2.51865 12.423
f 44/143/45 10/66/45 45/144/45

vn 2.44555e-015 -1 4.61884e-015
f 45/144/46 10/66/46 44/143/46

vt 10.3307 2.02156
f 11/25/11 10/27/11 45/145/11

usemtl _14_1_
vt 1.45632 0.369619
f 10/146/12 9/33/12 11/31/12

vt 1.32665 0.369619
f 45/147/12 10/146/12 11/31/12

usemtl _9
vt -6.7038 1.669
vn -0.883766 3.24005e-015 0.46793
vt -6.58467 2.02156
vt -6.7038 2.02156
f 11/148/47 44/149/47 45/150/47

v 17.9101 8.33625 -61.3174
vt -6.58467 1.669
f 44/149/47 11/148/47 46/151/47

vt -1.63972 1.669
vn 0.883766 -3.24005e-015 -0.46793
vt -1.75885 1.669
vt -1.63972 2.02156
f 46/152/48 11/153/48 44/154/48

vt -1.75885 2.02156
f 45/155/48 44/154/48 11/153/48

vn 0.46793 6.5659e-015 0.883766
f 46/25/49 29/27/49 44/145/49

vt 10.3695 1.669
f 28/156/49 29/27/49 46/25/49

f 29/27/49 28/156/49 26/60/49

vn -0.46793 -6.5659e-015 -0.883766
f 26/60/50 28/156/50 29/27/50

f 46/25/50 29/27/50 28/156/50

f 44/145/50 29/27/50 46/25/50

f 29/62/46 44/143/46 10/66/46

f 21/56/22 23/55/22 25/54/22

vt -4.38724 13.6133
f 25/54/21 21/56/21 22/157/21

f 22/157/22 21/56/22 25/54/22

f 15/44/14 18/43/14 17/42/14

g Mesh2 Group1 Chapelle_St_Laurent Model

usemtl _14
v -6.27895 8.33625 -47.6544
vt 1 1
vn -0.519089 -1.60429e-016 -0.85472
v 15.1033 -7.21911e-016 -60.6403
vt 0.0717726 1.29899e-015
v -6.27895 -1.15506e-014 -47.6544
vt 1 0
f 47/158/51 48/159/51 49/160/51

v 16.7566 0 -61.6444
vt 0 1.38558e-015
f 48/159/51 47/158/51 50/161/51

usemtl _9
vt -6.41795 2.58234e-016
vn 0.519089 1.60429e-016 0.85472
vt -10.0138 2.42624e-015
vt -6.41795 1.669
f 49/162/52 48/163/52 47/164/52

vt -10.2919 2.57077e-015
f 50/165/52 47/164/52 48/163/52

usemtl _14
v 15.1033 8.33625 -60.6403
vt 0.0717726 1
f 50/161/51 47/158/51 51/166/51

usemtl _9
vt -10.0138 1.669
f 51/167/52 47/164/52 50/165/52

vt -7.95915 8.61598
vn -3.25311e-016 -1 -2.53655e-016
v -5.64874 8.33625 -47.5005
vt -4.97626 5.98526
vt -4.88567 6.01609
f 51/168/53 52/169/53 47/170/53

v 15.4443 8.33625 -60.3107
vt -8.00818 8.55
f 52/169/53 51/168/53 53/171/53

vt 0.902537 9.54087
vn 3.25311e-016 1 2.53655e-016
vt 0.81195 9.51005
vt -2.17095 12.1408
f 47/172/54 52/173/54 51/174/54

v -1.78934 8.33625 -40.262
vt -5.53101 4.53604
f 52/169/53 54/175/53 47/170/53

v -1.1484 8.33625 -40.0903
vt -5.62313 4.50168
f 54/175/53 52/169/53 55/176/53

vt 0.257201 8.06083
f 47/172/54 54/177/54 52/173/54

usemtl _14_1_
vt -0.373053 0.368586
vn -0.85472 2.02073e-016 0.519089
v -1.78934 -1.15506e-014 -40.262
vt -0.163329 0.216583
vt -0.163064 0.36838
f 47/178/55 56/179/55 54/180/55

vt -0.373318 0.216789
f 56/179/55 47/178/55 49/181/55

usemtl _9
vt 0.0875645 1.669
vn 0.85472 -2.02073e-016 -0.519089
vt 0.0875645 1.80639e-015
vt -1.15564 1.669
f 54/182/56 56/183/56 47/184/56

usemtl _14_1_
v -40.2685 3.24129e-020 -19.1549
vt 0.902231 0.215537
vn -0.48093 1.13909e-016 -0.876759
f 57/185/57 54/180/57 56/179/57

v -40.2685 8.33625 -19.1549
vt 0.902496 0.367334
f 54/180/57 57/185/57 58/186/57

usemtl _9
vt -6.41558 -3.09812e-017
vn 0.48093 -1.13909e-016 0.876759
vt -6.41558 1.669
vt -0.107111 2.28156e-015
f 56/187/58 54/188/58 57/189/58

vt -0.107111 1.669
f 58/190/58 57/189/58 54/188/58

usemtl _14_1_
vn -0.85454 1.2471e-015 0.519385
v -39.3268 8.33625 -17.6055
vt 0.946518 0.367291
f 57/185/59 59/191/59 58/186/59

v -39.3268 0 -17.6055
vt 0.946253 0.215494
f 59/191/59 57/185/59 60/192/59

usemtl _9
vt 0.0703072 2.51347e-015
vn 0.85454 -1.2471e-015 -0.519385
vt -0.19032 2.51347e-015
vt 0.0703072 1.669
f 60/193/60 57/194/60 59/195/60

vt -0.19032 1.669
f 58/196/60 59/195/60 57/194/60

v -39.6275 8.33625 -18.9834
vt -0.0921502 0.275866
vt -0.135366 2.15775e-015
vt -1.27048e-015 0.310213
f 61/197/53 59/198/53 58/199/53

v -38.9348 8.33625 -17.8437
vt -0.191713 0.0477017
f 59/198/53 61/197/53 62/200/53

vt 5.78821 3.835
vt 5.65284 3.52478
vt 5.69606 3.80065
f 58/201/54 59/202/54 61/203/54

vt 5.59649 3.57249
f 62/204/54 61/203/54 59/202/54

v -38.9348 1.52865e-016 -17.8437
vt 5.09851 1.31897e-015
vn 0.85454 2.68088e-016 -0.519385
vt 5.29021 1.669
vt 5.09851 1.669
f 63/205/61 61/206/61 62/207/61

v -39.6275 1.52888e-016 -18.9834
vt 5.29021 1.31897e-015
f 61/206/61 63/205/61 64/208/61

vt -0.0703072 1.669
vn -0.85454 -2.68088e-016 0.519385
vt 0.121386 1.669
vt -0.0703072 2.27532e-015
f 62/209/62 61/210/62 63/211/62

vt 0.121386 2.27533e-015
f 64/212/62 63/211/62 61/210/62

usemtl _14_1_
vt -0.059832 0.227549
vn 0.48093 6.9624e-016 0.876759
vt 1.04224 0.380901
vt -0.0589406 0.384421
f 64/213/63 55/214/63 61/215/63

v -1.1484 -1.13976e-014 -40.0903
vt 1.04135 0.224029
f 55/214/63 64/213/63 65/216/63

usemtl _9
vt 6.48449 1.56058e-016
vn -0.48093 -6.9624e-016 -0.876759
vt 0.176045 2.46857e-015
vt 6.48449 1.669
f 65/217/64 64/218/64 55/219/64

vt 0.176045 1.669
f 61/220/64 55/219/64 64/218/64

f 61/197/53 54/175/53 55/176/53

f 54/175/53 61/197/53 58/199/53

f 58/201/54 61/203/54 54/177/54

vt 0.165071 8.02646
f 55/221/54 54/177/54 61/203/54

f 55/221/54 52/173/54 54/177/54

usemtl _14_3_
vt 6.66134e-016 1
vn 0.85472 9.22233e-018 -0.519089
v -5.64874 -1.15506e-014 -47.5005
f 55/222/65 66/160/65 52/158/65

vt 0 1.83571e-017
f 66/160/65 55/222/65 65/223/65

usemtl _9
vt -0.156475 -5.26502e-017
vn -0.85472 -9.22233e-018 0.519089
vt -0.156475 1.669
vt 1.08971 -8.3288e-017
f 65/224/66 55/225/66 66/226/66

vt 1.08971 1.669
f 52/227/66 66/226/66 55/225/66

usemtl _14_2_
v 15.4443 -7.21911e-016 -60.3107
vt 0.932481 1.29899e-015
vn 0.519089 1.06825e-016 0.85472
vt 0 1
vt 0 0
f 67/228/67 52/229/67 66/230/67

v 16.9716 0 -61.2383
vt 1 1.38558e-015
f 52/229/67 67/228/67 68/231/67

usemtl _9
vt 6.48389 1.62139e-016
vn -0.519089 -1.06825e-016 -0.85472
vt 6.48389 1.669
vt 10.0312 2.33014e-015
f 66/232/68 52/233/68 67/234/68

vt 10.288 2.47468e-015
f 68/235/68 67/234/68 52/233/68

usemtl _14_2_
vt 0.932481 1
f 52/229/67 68/231/67 53/236/67

usemtl _9
vt 10.0312 1.669
f 53/237/68 68/235/68 52/233/68

usemtl _14_2_
v 16.9716 8.33625 -61.2383
f 53/236/67 68/231/67 69/158/67

usemtl _9
vt 10.288 1.669
f 69/238/68 68/235/68 53/237/68

vt -2.21997 12.0748
f 53/239/54 51/174/54 52/173/54

vt -0.181614 2.34626e-015
vn -0.519385 3.1889e-017 -0.85454
vt -0.115676 1.669
vt -0.181614 1.669
f 63/240/69 59/241/69 62/242/69

vt -0.115676 2.31566e-015
f 59/241/69 63/240/69 60/243/69

vt 3.51621 -2.2646e-016
vn 0.519385 -3.1889e-017 0.85454
vt 3.45028 -1.95855e-016
vt 3.51621 1.669
f 60/244/70 63/245/70 59/246/70

vt 3.45028 1.669
f 62/247/70 59/246/70 63/245/70

vt -1.15564 1.80639e-015
f 49/248/56 47/184/56 56/183/56

usemtl _14
v 16.7566 8.33625 -61.6444
f 50/161/51 51/166/51 70/229/51

usemtl _9
vt -10.2919 1.669
f 70/249/52 51/167/52 50/165/52

g Mesh3 Group1 Chapelle_St_Laurent Model

l 13 12

l 13 11

l 11 45

l 11 46

l 46 28

l 46 44

l 45 44

l 10 45

l 10 29

l 9 10

l 9 14

l 7 9

l 5 7

l 2 5

l 4 2

l 43 4

l 42 43

l 41 42

l 40 41

l 39 40

l 38 39

l 37 38

l 14 37

l 14 16

l 16 20

l 16 36

l 16 17

l 17 19

l 15 17

l 12 15

l 15 18

l 18 19

l 22 18

l 21 22

l 21 20

l 23 21

l 26 23

l 26 29

l 28 26

l 27 28

l 25 27

l 25 22

l 29 24

l 29 44

l 23 24

l 24 20

l 20 19

l 36 35

l 35 34

l 34 33

l 33 32

l 32 31

l 31 30

l 30 1

l 1 3

l 3 6

l 6 8

l 8 10

g Mesh4 Group1 Chapelle_St_Laurent Model

l 66 65

l 67 66

l 68 67

l 69 68

l 69 53

l 53 52

l 53 51

l 47 51

l 49 47

l 49 56

l 48 49

l 50 48

l 50 70

l 51 70

l 56 54

l 56 57

l 57 58

l 57 60

l 60 59

l 63 60

l 62 63

l 61 62

l 55 61

l 52 55

l 52 66

l 55 65

l 65 64

l 61 64

l 64 63

l 62 59

l 59 58

l 58 54

l 54 47

g Mesh5 Group2 Chapelle_St_Laurent Model

usemtl _14_1_
v 4.014 16.6725 -35.9237
vt -0.142332 0.369999
vn -0.883766 1.18606e-015 0.46793
v 3.95013 -8.66294e-015 -36.0443
vt -0.14539 0.0898651
v 4.014 -7.94103e-015 -35.9237
vt -0.142332 0.0898651
f 71/250/71 72/251/71 73/252/71

v 0.00829097 16.6725 -43.4891
vt -0.334112 0.369999
f 72/251/71 71/250/71 74/253/71

usemtl BackColor
vt -2.50009 2.4164e-013
vn 0.883766 -1.18606e-015 -0.46793
vt -7.87345 2.13218e-013
vt -2.50009 656.398
f 73/254/72 72/255/72 71/256/72

vt -339.527 656.398
f 74/257/72 71/256/72 72/255/72

usemtl FrontColor
v 5.17501 21.2785 -39.9778
vt 122.172 865.313
vn 0.746183 -0.535836 -0.395084
vt 2.50009 650.538
vt 339.527 650.538
f 75/258/73 71/259/73 74/260/73

v 4.72229 16.6725 -34.5859
vt -57.0938 650.538
f 75/258/73 76/261/73 71/259/73

v 5.17501 17.2844 -34.5608
vt -66.3068 679.072
f 77/262/73 76/261/73 75/258/73

v 4.8318 16.6725 -34.3791
vt -66.3068 650.538
f 76/261/73 77/262/73 78/263/73

usemtl _19
vt -2.74934 11.7068
vn -0.746183 0.535836 0.395084
vt -2.71678 11.7689
vt -2.72483 11.6982
f 78/264/74 77/265/74 76/266/74

vt -2.00303 11.9983
f 75/267/74 76/266/74 77/265/74

vt -2.56634 11.6426
f 71/268/74 76/266/74 75/267/74

vt -1.66998 11.328
f 74/269/74 71/268/74 75/267/74

usemtl FrontColor
v 20.5974 16.6725 -54.3905
vt 1096.98 159.793
vn 0.299765 -0.767858 0.566158
vt 294.854 442.86
vt 179.77 159.793
f 79/270/75 75/271/75 74/272/75

v 20.5974 21.2785 -48.1435
vt 981.891 442.86
f 75/271/75 79/270/75 80/273/75

usemtl _19
vn -0.299765 0.767858 -0.566158
vt -4.32434 11.328
f 74/269/76 75/267/76 79/274/76

vt -3.9913 11.9983
f 80/275/76 79/274/76 75/267/76

usemtl FrontColor
vt -339.527 -33.5873
vn -0.746183 -0.535836 0.395084
v 25.7641 16.6725 -44.6323
vt 95.1835 -33.5873
vt -122.172 181.187
f 79/276/77 81/277/77 80/278/77

usemtl _19
vt 5.5253 11.3226
vn 0.746183 0.535836 -0.395084
vt 5.85835 11.9928
vt 6.34045 11.0421
f 80/279/78 81/280/78 79/281/78

usemtl FrontColor
v 5.17501 16.6725 -33.7309
vt -179.77 347.414
vn -0.299765 -0.767858 -0.566158
vt -981.891 630.482
vt -1096.98 347.414
f 82/282/79 80/283/79 81/284/79

vt -195.06 385.021
f 77/285/79 80/283/79 82/282/79

vt -294.854 630.482
f 80/283/79 77/285/79 75/286/79

usemtl _19
vt 3.53703 11.3226
vn 0.299765 0.767858 0.566158
vt 3.24823 11.9038
f 75/287/80 77/288/80 80/279/80

vt 3.20398 11.9928
f 82/289/80 80/279/80 77/288/80

f 81/280/80 80/279/80 82/289/80

usemtl _14_4_
v 0.00829097 2.88765e-015 -43.4891
vt 1 1.73198e-016
f 79/229/35 83/290/35 74/158/35

v 20.5974 0 -54.3905
f 83/290/35 79/229/35 84/230/35

usemtl BackColor
vt -1096.98 3.41061e-013
vt -1096.98 656.398
vt -179.77 4.54747e-013
f 84/291/36 79/292/36 83/293/36

vt -179.77 656.398
f 74/294/36 83/293/36 79/292/36

usemtl _14_1_
vt -0.334112 0.0898651
f 72/251/71 74/253/71 83/295/71

usemtl BackColor
vt -339.527 6.67966e-013
f 83/296/72 74/257/72 72/255/72

g Mesh6 Group2 Chapelle_St_Laurent Model

l 72 73

l 83 72

l 83 74

l 84 83

l 84 79

l 79 74

l 80 79

l 80 75

l 80 81

l 81 82

l 81 79

l 77 82

l 75 77

l 75 74

l 74 71

l 71 73

l 71 76

l 76 78

l 77 78

