# Alias OBJ Model File
# Exported from SketchUp, (c) 2000-2012 Trimble Navigation Limited
# File units = meters

mtllib maison.mtl

g Mesh1 Maison_des_gardiens Model

usemtl _9
v -28.2652 69.7421 21.9884
vt -0.892126 -1.03836
vn 0.34561 -0.920363 -0.182991
v -26.463 68.3399 32.4445
vt -2.3416 -1.75623
v -33.1642 68.3399 19.7881
vt -0.283097 -1.75623
f 1/1/1 2/2/1 3/3/1

v -25.5292 69.7421 27.1558
vt -1.73257 -1.03836
f 2/2/1 1/1/1 4/4/1

usemtl _19
vt -1.95059 13.2827
vn -0.34561 0.920363 0.182991
vt -3.54296 12.9915
vt -2.51083 13.5227
f 3/5/2 2/6/2 1/7/2

usemtl _4
vt -4.77717 33.7525
vn -0.883748 -0.00639261 0.46792
v -26.4451 65.168 32.435
vt -4.18974 33.3222
vn 0.0028248 -0.999995 -0.00149565
vt -4.19127 33.7767
f 3/8/3 5/9/4 2/10/3

v -32.2845 65.168 21.4063
vt -4.70029 33.3011
f 5/9/4 3/8/3 6/11/4

usemtl _9
vt 2.3416 13.7314
vn 0.883748 0.00639261 -0.46792
vt 2.3416 13.0963
vn -0.0028248 0.999995 0.00149565
vt 0.283097 13.7314
f 2/12/5 5/13/6 3/14/5

usemtl _4
vt -4.81397 33.379
vn 0.46793 -2.01146e-015 0.883766
v -16.6055 68.2932 27.2252
vt -4.11086 33.7546
vt -4.81525 33.7603
f 5/15/7 7/16/7 2/17/7

v -16.5876 65.168 27.2157
vt -4.10956 33.3789
f 5/15/7 8/18/7 7/16/7

v -26.4451 64.0062 32.435
vt -4.81397 33.2393
f 9/19/7 8/18/7 5/15/7

v -16.5876 64.0062 27.2157
vt -4.10955 33.2393
f 8/18/7 9/19/7 10/20/7

usemtl _9
vt -3.9377 12.8146
vn -0.46793 2.01146e-015 -0.883766
vt -5.54098 12.8146
vt -3.9377 13.0472
f 10/21/8 9/22/8 8/23/8

vt -5.54098 13.0472
f 5/24/8 8/23/8 9/22/8

vt -3.94062 13.673
f 7/25/8 8/23/8 5/24/8

usemtl _4
vt -5.77355 33.2969
vn -0.00286694 0.999995 0.00151797
v -23.3067 68.2932 14.5688
vt -5.18914 33.7688
vn 0.883747 0.00648797 -0.46792
vt -5.77505 33.7447
f 8/26/9 11/27/10 7/28/10

v -22.427 65.168 16.187
vt -5.263 33.3178
f 11/27/10 8/26/9 12/29/9

usemtl _9
vt -2.3416 13.7083
vn -0.883747 -0.00648797 0.46792
vt -0.283097 13.7083
vt -2.3416 13.0826
vn 0.00286694 -0.999995 -0.00151797
f 7/30/11 11/31/11 8/32/12

v -21.5046 69.723 25.0249
vt 1.73257 11.1921
vn -0.351344 -0.917579 0.186027
vt 0.283097 10.4721
vt 2.3416 10.4721
f 13/33/13 11/34/13 7/35/13

v -24.2405 69.723 19.8575
vt 0.892126 11.1921
f 11/34/13 13/33/13 14/36/13

usemtl _19
vt -3.28874 13.5294
vn 0.351344 0.917579 -0.186027
vt -2.64215 13.3982
vt -3.85593 13.2991
f 14/37/14 13/38/14 11/39/14

usemtl _9
vt 1.73257 7.11945
vn -0.0787784 -0.987017 -0.13997
vt 0.892126 6.2077
vn 0.0714864 -0.987017 0.143831
vt 1.73257 6.2077
f 4/40/15 14/41/16 13/42/15

vt 0.892126 7.11945
f 14/41/16 4/40/15 1/43/16

usemtl _19
vt -3.16385 13.9415
vn -0.0714864 0.987017 -0.143831
vt -2.51726 13.8103
vn 0.0787784 0.987017 0.13997
f 1/44/17 4/45/18 14/37/17

vt -3.16096 13.4038
f 4/46/2 1/7/2 2/6/2

usemtl _9
vt 5.09082 2.22123
vt 3.96959 1.30615
vn -0.151819 -0.948431 -0.278264
vt 5.57274 1.33559
f 4/47/15 7/48/19 2/49/19

vt 4.43628 2.20921
f 7/48/19 4/47/15 13/50/15

usemtl _19
vn 0.151819 0.948431 0.278264
vt -2.27222 12.9777
f 2/6/20 7/51/20 4/46/18

usemtl _9
vt -5.54389 13.6823
f 2/52/8 7/25/8 5/24/8

usemtl _19
f 13/38/18 4/46/18 7/51/20

f 13/38/18 14/37/17 4/45/18

f 7/51/14 11/39/14 13/38/14

usemtl _9
vt -5.05799 5.68825
vt -3.93677 4.77317
vn 0.144812 -0.948431 0.281974
vt -4.40346 5.67623
f 1/53/16 11/54/21 14/55/16

vt -5.53992 4.80262
f 11/54/21 1/53/16 3/56/21

usemtl _19
vt -3.63295 14.3227
vn -0.144812 0.948431 -0.281974
vt -3.1977 13.9474
f 3/57/22 1/58/17 11/39/22

f 14/37/17 11/39/22 1/58/17

usemtl _4
v -23.2888 65.168 14.5593
vt -4.93246 33.2892
vn -0.46793 6.17378e-016 -0.883766
vt -4.4777 33.7728
vt -4.93395 33.7371
f 15/59/23 3/60/23 11/61/23

v -33.1463 65.168 19.7786
vt -4.47617 33.3183
f 3/60/23 15/59/23 16/62/23

usemtl _9
vt 5.54098 13.0472
vn 0.46793 -6.17378e-016 0.883766
vt 3.9377 13.0472
vt 5.54389 13.6823
f 16/63/24 15/64/24 3/65/24

vt 3.94062 13.673
f 11/66/24 3/65/24 15/64/24

usemtl _4
vt -5.18765 33.3209
f 11/27/10 12/29/9 15/67/10

usemtl _9
vt -0.547837 13.0826
f 12/68/12 8/32/12 11/31/11

vt 0.547837 13.0472
vt 2.3416 12.8146
vn -0.883766 -5.32344e-016 0.46793
vt 2.3416 13.0472
f 12/69/9 10/70/25 8/71/9

v -22.427 64.0062 16.187
vt 0.547837 12.8146
f 10/70/25 12/69/9 17/72/25

usemtl _4
vt -5.7741 33.4634
vn 0.883766 5.32344e-016 -0.46793
f 8/26/12 10/73/26 12/29/12

vt -5.26356 33.4843
f 17/74/26 12/29/12 10/73/26

usemtl _9
vt -0.283097 13.0826
f 15/75/11 12/68/12 11/31/11

usemtl _4
vt -4.77564 33.298
f 6/11/4 3/8/3 16/76/3

usemtl _9
vt 0.547837 13.0963
f 6/77/6 3/14/5 5/13/6

vt 0.283097 13.0963
f 16/78/5 3/14/5 6/77/6

vt -2.3416 13.0472
v -32.2845 64.0062 21.4063
vt -0.547837 12.8146
vt -0.547837 13.0472
f 5/79/4 18/80/26 6/81/4

vt -2.3416 12.8146
f 18/80/26 5/79/4 9/82/26

usemtl _4
vt -4.1903 33.4887
vt -4.70085 33.4676
f 9/83/25 5/9/6 18/84/25

f 6/11/6 18/84/25 5/9/6

g Mesh2 Maison_des_gardiens Model

l 1 3

l 1 4

l 4 2

l 3 2

l 3 16

l 11 3

l 15 11

l 15 16

l 15 12

l 12 17

l 17 10

l 10 9

l 8 10

l 8 7

l 7 2

l 13 7

l 14 13

l 14 11

l 11 7

l 2 5

l 5 9

l 9 18

l 6 18

l 6 16

