# Alias OBJ Model File
# Exported from SketchUp, (c) 2000-2012 Trimble Navigation Limited
# File units = meters

mtllib nefR.mtl

g Mesh1 Group1 Model

usemtl FrontColor
v 39.5017 -3.75342 -18.6865
vt -3184.18 1721.09
vn -2.31813e-015 -1 1.36009e-015
v -16.7529 -3.75342 25.0291
vt -969.427 -1.3223e-026
v -22.5137 -3.75342 14.1489
vt -742.625 428.354
f 1/1/1 2/2/1 3/3/1

v 45.2624 -3.75342 -7.80633
vt -3410.98 1292.73
f 2/2/1 1/1/1 4/4/1

usemtl BackColor
vn 2.31813e-015 1 -1.36009e-015
f 3/3/2 2/2/2 1/1/2

usemtl _9
v -16.7529 11.1821 25.0291
vt 2.0527 2.23877
vn -0.883766 3.83853e-015 0.46793
vt 0.283097 -0.75147
vt 2.0527 -0.75147
f 5/5/3 3/6/3 2/7/3

v -22.5137 -2.64447 14.1489
vt 0.283097 -0.529449
f 3/6/3 5/5/3 6/8/3

usemtl BackColor
vt 453.624 1.07636e-011
vn 0.883766 -3.83853e-015 -0.46793
vt -31.0677 1.07067e-011
vt 453.624 588.014
f 2/9/4 3/10/4 5/11/4

vt -31.0677 43.6592
f 6/12/4 5/11/4 3/10/4

usemtl _9
v -22.5137 16.6725 14.1489
vt 0.283097 3.33799
f 7/13/3 6/8/3 5/5/3

usemtl BackColor
vt -31.0677 804.17
f 5/11/4 6/12/4 7/14/4

usemtl _9
vt -3.81164 3.33799
vn 0.46793 -4.76677e-016 0.883766
v -33.4017 -2.64447 19.9138
vt -5.58251 -0.529449
vt -3.81164 -0.529449
f 7/15/5 8/16/5 6/17/5

v -33.4017 25.0088 19.9138
vt -5.58251 5.00699
f 8/16/5 7/15/5 9/18/5

usemtl BackColor
vt 856.746 43.6592
vn -0.46793 4.76677e-016 -0.883766
vt 371.707 43.6592
vt 856.746 804.17
f 6/19/6 8/20/6 7/21/6

usemtl FrontColor
vt -313.964 201.389
vn -2.00778e-015 -1 8.75218e-016
v 31.527 -2.64447 -33.7481
vt -2870.21 2314.06
f 8/22/7 10/23/7 6/3/7

v -41.3764 -2.64447 4.85225
vt 8.76582e-014 794.365
f 10/23/7 8/22/7 11/24/7

usemtl BackColor
vn 2.00778e-015 1 -8.75218e-016
f 11/24/8 8/22/8 10/23/8

usemtl _9
vn -0.883766 1.40992e-015 0.46793
v -37.4119 33.345 12.3398
vt -0.948775 6.67598
vt -2.16659 -0.529449
f 8/8/9 12/25/9 11/26/9

vt 0.283097 5.00699
f 12/25/9 8/8/9 9/27/9

usemtl BackColor
vt -31.0677 1132.37
vn 0.883766 -1.40992e-015 -0.46793
vt -368.474 1460.57
f 9/28/10 8/12/10 12/29/10

vt 371.707 1132.37
f 9/30/6 7/21/6 8/20/6

usemtl _9
v 39.5017 25.0087 -18.6865
vt 6.27486 5.00699
f 9/18/5 7/15/5 13/31/5

usemtl BackColor
vt 3619.41 1132.37
f 13/32/6 7/21/6 9/30/6

usemtl _9
v 39.5017 16.6725 -18.6865
vt 6.27486 3.33799
f 13/31/5 7/15/5 14/33/5

usemtl BackColor
vt 3619.41 804.17
f 14/34/6 7/21/6 13/32/6

usemtl Roofing_Slate_Dark
vt -13.2588 -4.244
vn 0.190587 0.913295 0.359957
vt 21.8271 2.49597
vt -13.2588 2.49597
f 5/35/11 14/36/11 7/37/11

v 45.2624 11.1821 -7.80633
vt 21.8271 -4.244
f 14/36/11 5/35/11 15/38/11

usemtl BackColor
vt 856.746 355.911
vn -0.190587 -0.913295 -0.359957
vt 3619.41 355.911
vt 856.746 -174.795
f 7/39/12 14/40/12 5/41/12

vt 3619.41 -174.795
f 15/42/12 5/41/12 14/40/12

usemtl _9
vt -3.81164 -0.75147
vn 0.46793 -2.80725e-017 0.883766
vt 6.27486 2.23877
vt -3.81164 2.23877
f 2/43/13 15/44/13 5/45/13

vt 6.27486 -0.75147
f 15/44/13 2/43/13 4/46/13

usemtl BackColor
vt 3619.41 6.95778e-014
vn -0.46793 2.80725e-017 -0.883766
vt 856.746 7.48764e-012
vt 3619.41 588.014
f 4/47/14 2/48/14 15/49/14

f 4/4/2 1/1/2 2/2/2

usemtl _9
vt 11.9333 -0.75147
vn 0.883766 -2.39921e-015 -0.46793
vt 10.1637 2.23877
vt 10.1637 -0.75147
f 1/50/15 15/51/15 4/52/15

v 39.5017 -2.64447 -18.6865
vt 11.9333 -0.529449
f 15/51/15 1/50/15 16/53/15

usemtl BackColor
vt -453.624 8.74057e-012
vn -0.883766 2.39921e-015 0.46793
vt -453.624 588.014
vt 31.0677 8.68372e-012
f 4/54/16 15/55/16 1/56/16

vt 31.0677 43.6592
f 16/57/16 1/56/16 15/55/16

usemtl FrontColor
vt -856.746 6.51541e-012
vn -0.46793 2.90544e-014 -0.883766
vt -3619.41 43.6592
vt -3619.41 -9.02653e-013
f 3/58/17 16/59/17 1/60/17

vt -856.746 43.6592
f 16/59/17 3/58/17 6/61/17

usemtl BackColor
vn 0.46793 -2.90544e-014 0.883766
f 1/60/18 16/59/18 3/58/18

f 6/61/18 3/58/18 16/59/18

usemtl FrontColor
f 6/3/7 10/23/7 16/1/7

usemtl BackColor
f 6/3/8 10/23/8 8/22/8

f 16/1/8 10/23/8 6/3/8

usemtl _9
vt 11.9333 3.33799
vt 14.383 -0.529449
f 14/62/15 16/53/15 10/63/15

f 15/51/15 16/53/15 14/62/15

usemtl BackColor
vt 31.0677 804.17
f 14/64/16 16/57/16 15/55/16

vt 702.032 43.6592
f 10/65/16 16/57/16 14/64/16

usemtl _9
vt 11.9333 5.00699
f 14/62/15 10/63/15 13/66/15

usemtl BackColor
vt 31.0677 1132.37
f 13/67/16 10/65/16 14/64/16

usemtl _9
v 35.4914 33.345 -26.2605
vt 13.1651 6.67598
f 13/66/15 10/63/15 17/68/15

usemtl BackColor
vt 368.474 1460.57
f 17/69/16 10/65/16 13/67/16

usemtl _9
v 31.527 25.0087 -33.7481
vt 14.383 5.00699
f 17/68/15 10/63/15 18/70/15

usemtl BackColor
vt 702.032 1132.37
f 18/71/16 10/65/16 17/69/16

usemtl _9
v 31.527 -1.10935 -33.7481
vt 14.383 -0.222103
f 18/70/15 10/63/15 19/72/15

usemtl BackColor
vt 702.032 104.097
f 19/73/16 10/65/16 18/71/16

usemtl _9
vt 5.58251 -0.529449
vn -0.46793 7.23474e-016 -0.883766
vt -6.27486 -0.222102
vt -6.27486 -0.529449
f 11/74/19 19/75/19 10/76/19

v -30.4884 -1.10935 -0.912646
vt 3.81164 -0.222102
f 19/75/19 11/74/19 20/77/19

usemtl BackColor
vn 0.46793 -7.23474e-016 0.883766
vt -3619.41 104.097
vt -371.707 43.6592
f 10/59/20 19/78/20 11/79/20

vt -856.746 104.097
f 20/80/20 11/79/20 19/78/20

usemtl _9
v -41.3764 25.0088 4.85225
vt 5.58251 5.00699
f 20/77/19 11/74/19 21/81/19

usemtl BackColor
vt -371.707 1132.37
f 21/82/20 11/79/20 20/80/20

usemtl _9
vt -2.16659 5.00699
f 11/26/9 12/25/9 21/83/9

usemtl BackColor
vt -702.032 43.6592
f 11/84/10 12/29/10 8/12/10

vt -702.032 1132.37
f 21/85/10 12/29/10 11/84/10

usemtl Roofing_Slate_Dark
vt 19.4188 9.34089
vn -0.328186 0.71281 -0.619836
vt -21.8271 3.39795
vt 19.4188 3.39795
f 12/86/21 18/87/21 21/88/21

vt -21.8271 9.34089
f 18/87/21 12/86/21 17/89/21

usemtl BackColor
vt -371.707 293.78
vn 0.328186 -0.71281 0.619836
vt -3619.41 293.78
vt -371.707 761.728
f 21/90/22 18/91/22 12/92/22

usemtl _9
v -30.4884 16.6725 -0.912646
vt 3.81164 3.33799
vt -6.27486 5.00699
f 22/93/19 21/81/19 18/94/19

f 20/77/19 21/81/19 22/93/19

usemtl BackColor
vt -856.746 804.17
f 22/95/20 21/82/20 20/80/20

vt -3619.41 1132.37
f 18/96/20 21/82/20 22/95/20

usemtl _9
v 31.527 16.6725 -33.7481
vt -6.27486 3.33799
f 18/94/19 23/97/19 22/93/19

vt 14.383 3.33799
f 18/70/15 19/72/15 23/98/15

usemtl BackColor
vt 702.032 804.17
f 23/99/16 19/73/16 18/71/16

usemtl _9
v 25.7641 -1.10935 -44.6323
vt 16.1532 -0.222103
f 24/100/15 23/98/15 19/72/15

v 25.7641 11.1821 -44.6323
vt 16.1532 2.23877
f 23/98/15 24/100/15 25/101/15

usemtl BackColor
vt 1186.9 104.097
f 19/73/16 23/99/16 24/102/16

vt 1186.9 588.014
f 25/103/16 24/102/16 23/99/16

usemtl _9
v -36.2513 -1.10935 -11.7968
vn -0.46793 9.53279e-018 -0.883766
vt -6.27486 2.23877
f 26/77/23 25/104/23 24/75/23

v -36.2513 11.1821 -11.7968
vt 3.81164 2.23877
f 25/104/23 26/77/23 27/105/23

usemtl BackColor
vn 0.46793 -9.53279e-018 0.883766
vt -3619.41 588.014
f 24/78/24 25/106/24 26/80/24

vt -856.746 588.014
f 27/107/24 26/80/24 25/106/24

usemtl FrontColor
vn 0.883766 -1.19143e-015 -0.46793
f 22/99/25 26/102/25 27/103/25

f 26/102/25 22/99/25 20/73/25

usemtl _9
vt 2.16659 -0.222102
vn -0.883766 1.19143e-015 0.46793
vt 2.16659 3.33799
vt 3.93685 -0.222102
f 20/108/26 22/109/26 26/110/26

vt 3.93685 2.23877
f 27/111/26 26/110/26 22/109/26

usemtl Roofing_Slate_Dark
vt 13.2588 -3.48916
vn -0.190529 0.91335 -0.359847
vt -21.8271 -10.2312
vt 13.2588 -10.2312
f 22/112/27 25/113/27 27/114/27

vt -21.8271 -3.48916
f 25/113/27 22/112/27 23/115/27

usemtl BackColor
vt -856.746 -844.632
vn 0.190529 -0.91335 0.359847
vt -3619.41 -844.632
vt -856.746 -313.764
f 27/116/28 25/117/28 22/118/28

vt -3619.41 -313.764
f 23/119/28 22/118/28 25/117/28

vt -3619.41 804.17
f 22/95/20 23/120/20 18/96/20

usemtl FrontColor
vt -2643.33 2742.57
vn -2.03661e-015 -1 1.07833e-015
vt -428.661 1021.33
vt -201.777 1449.84
f 24/121/29 20/122/29 26/123/29

f 20/122/29 24/121/29 19/23/29

usemtl BackColor
vn 2.03661e-015 1 -1.07833e-015
f 26/123/30 20/122/30 24/121/30

f 19/23/30 24/121/30 20/122/30

vt -3619.41 761.728
f 17/124/22 12/92/22 18/91/22

usemtl Roofing_Slate_Dark
vt 19.4188 15.3188
vn 0.326268 0.71682 0.616213
f 9/125/31 17/89/31 12/86/31

vt -21.8271 15.3188
f 17/89/31 9/125/31 13/126/31

usemtl BackColor
vt 371.707 1282.52
vn -0.326268 -0.71682 -0.616213
vt 3619.41 1282.52
vt 371.707 811.823
f 12/127/32 17/128/32 9/129/32

vt 3619.41 811.823
f 13/130/32 9/129/32 17/128/32

vt 856.746 588.014
f 5/131/14 15/49/14 2/48/14

g Mesh2 Group1 Model

l 1 4

l 1 3

l 16 1

l 16 10

l 16 6

l 3 6

l 2 3

l 4 2

l 4 15

l 15 14

l 15 5

l 2 5

l 7 5

l 6 7

l 6 8

l 8 11

l 8 9

l 13 9

l 13 17

l 13 14

l 14 7

l 17 18

l 17 12

l 12 21

l 9 12

l 18 21

l 23 18

l 25 23

l 24 25

l 19 24

l 19 20

l 10 19

l 10 11

l 11 21

l 20 26

l 20 22

l 23 22

l 27 22

l 25 27

l 26 27

l 24 26

g Mesh3 Group1 Model

v 39.5017 11.1821 -18.6865
v 23.3906 11.1821 -10.1562
l 28 29

