# Alias OBJ Model File
# Exported from SketchUp, (c) 2000-2012 Trimble Navigation Limited
# File units = meters

mtllib toursR.mtl

g toursR

usemtl FrontColor
v -22.5137 -3.75342 14.1489
vt -969.51 655.134
vn -2.28957e-015 -1 1.37814e-015
v -27.6321 -3.75342 30.7893
vt -767.998 -4.30342e-027
v -33.3929 -3.75342 19.9091
vt -541.197 428.354
f 1/1/1 2/2/1 3/3/1

v -16.7529 -3.75342 25.0291
vt -1196.31 226.78
f 2/2/1 1/1/1 4/4/1

usemtl BackColor
vn 2.28957e-015 1 -1.37814e-015
f 3/3/2 2/2/2 1/1/2

f 4/4/2 1/1/2 2/2/2

g Mesh2 Group2 Group1 Model

usemtl FrontColor
v -36.2513 -1.10935 -11.7968
vt -428.661 1676.62
vn -2.05163e-015 -1 1.10286e-015
v -41.3764 -1.10935 4.85225
vt -226.885 1021.14
v -47.1393 -1.10935 -6.03191
vt 2.13569e-013 1449.66
f 5/5/3 6/6/3 7/7/3

v -30.4884 -1.10935 -0.912646
vt -655.546 1248.11
f 6/6/3 5/5/3 8/8/3

usemtl BackColor
vn 2.05163e-015 1 -1.10286e-015
f 7/7/4 6/6/4 5/5/4

f 8/8/4 5/5/4 6/6/4

g Mesh3 Group2 Group1 Model

l 3 1

l 3 2

l 2 4

l 1 4

g Mesh4 Group2 Group1 Model

l 7 6

l 5 7

l 8 5

l 8 6

g Mesh5 Group2 Group1 Model

v -33.3929 -2.64447 19.9091
v -33.4017 -2.64447 19.9138
l 9 10

g Mesh6 Group1 Model

usemtl Roofing_Slate_Dark
v -38.8138 58.6388 -3.47228
vt -16.3388 30.1919
vn -0.386187 0.56468 -0.729381
v -36.2513 49.6388 -11.7968
vt -10.0791 30.0127
v -47.1393 49.6388 -6.03191
vt -12.9541 35.4607
f 11/9/5 12/10/5 13/11/5

usemtl BackColor
vt -678.337 1011.4
vn 0.386187 -0.56468 0.729381
vt -1163.38 1011.4
vt -920.857 1440.73
f 13/12/6 12/13/6 11/14/6

usemtl _9
v -36.2513 11.1821 -11.7968
vt 3.81164 2.23877
vn -0.46793 1.82274e-017 -0.883766
vt 5.58251 9.93815
vt 3.81164 9.93815
f 14/15/7 13/16/7 12/17/7

vt 5.58251 -0.222102
f 14/15/7 7/18/7 13/16/7

vt 3.81164 -0.222102
f 7/18/7 14/15/7 5/19/7

usemtl BackColor
vt -1163.38 104.097
vn 0.46793 -1.82274e-017 0.883766
vt -1163.38 588.014
vt -678.337 104.097
f 5/20/8 14/21/8 7/22/8

usemtl _9
v -33.3698 49.6388 -6.35473
vt 3.05172 9.93815
vn 0.883766 -2.68114e-015 -0.46793
vt 3.93685 -0.222102
vt 3.93685 2.23877
f 15/23/9 5/24/9 14/25/9

v -30.4884 49.6388 -0.912646
vt 2.16659 9.93815
f 16/26/9 5/24/9 15/23/9

v -30.4884 25.0088 -0.912646
vt 2.16659 5.00699
f 17/27/9 5/24/9 16/26/9

v -30.4884 16.6725 -0.912646
vt 2.16659 3.33799
f 18/28/9 5/24/9 17/27/9

vt 2.16659 -0.222102
f 5/24/9 18/28/9 8/29/9

usemtl BackColor
vt 796.287 104.097
vn -0.883766 2.68114e-015 0.46793
vt 796.287 804.17
vt 1281.16 104.097
f 8/30/10 18/31/10 5/32/10

usemtl _9
vt -3.81164 3.33799
vn 0.46793 -2.32441e-015 0.883766
vt -5.58251 -0.222102
vt -3.81164 -0.222102
f 18/33/11 6/34/11 8/35/11

v -41.3764 25.0088 4.85225
vt -5.58251 5.00699
f 6/34/11 18/33/11 19/36/11

usemtl BackColor
vt 1163.38 104.097
vn -0.46793 2.32441e-015 -0.883766
vt 678.337 104.097
vt 1163.38 804.17
f 8/37/12 6/38/12 18/39/12

usemtl FrontColor
f 6/6/3 5/5/3 8/8/3

f 5/5/3 6/6/3 7/7/3

usemtl BackColor
f 7/7/4 6/6/4 5/5/4

usemtl _9
vt -2.16659 -0.222102
vn -0.883766 2.58432e-015 0.46793
v -41.3764 49.6388 4.85225
vt -2.16659 9.93815
vt -3.93685 -0.222102
f 6/40/13 20/41/13 7/42/13

vt -2.16659 5.00699
f 20/41/13 6/40/13 19/43/13

usemtl BackColor
vt -796.287 1132.37
vn 0.883766 -2.58432e-015 -0.46793
vt -796.287 104.097
vt -796.287 2102.05
f 19/44/14 6/45/14 20/46/14

vt 678.337 1132.37
f 19/47/12 18/39/12 6/38/12

usemtl _9
vt -3.81164 5.00699
f 19/36/11 18/33/11 17/48/11

usemtl BackColor
vt 1163.38 1132.37
f 17/49/12 18/39/12 19/47/12

vt 796.287 1132.37
f 17/50/10 5/32/10 18/31/10

vt 796.287 2102.05
f 16/51/10 5/32/10 17/50/10

vt 1038.72 2102.05
f 15/52/10 5/32/10 16/51/10

vt 1281.16 588.014
f 14/53/10 5/32/10 15/52/10

usemtl _9
vt 3.93685 9.93815
f 15/23/9 14/25/9 12/54/9

usemtl BackColor
vt 1281.16 2102.05
f 12/55/10 14/53/10 15/52/10

vt -1163.38 2102.05
vt -678.337 2102.05
f 12/56/8 13/57/8 14/21/8

usemtl FrontColor
v -44.2578 49.6388 -0.589831
vt 113.442 1235.4
vn 2.48572e-015 1 -1.31612e-015
vt 428.661 1676.62
vt -6.77636e-013 1449.66
f 21/58/15 12/59/15 13/60/15

v -38.8138 49.6388 -3.47228
vt 327.773 1348.88
f 12/59/15 21/58/15 22/61/15

usemtl BackColor
vn -2.48572e-015 -1 1.31612e-015
f 13/60/16 12/59/16 21/58/16

f 22/61/16 21/58/16 12/59/16

usemtl FrontColor
vt 226.885 1021.14
f 20/62/15 22/61/15 21/58/15

vt 655.546 1248.11
f 22/61/15 20/62/15 16/63/15

usemtl BackColor
f 21/58/16 22/61/16 20/62/16

f 16/63/16 20/62/16 22/61/16

usemtl _9
vn 0.46793 2.48276e-015 0.883766
vt -3.81164 9.93815
vt -5.58251 9.93815
f 19/36/17 16/64/17 20/65/17

f 16/64/17 19/36/17 17/48/17

usemtl BackColor
vn -0.46793 -2.48276e-015 -0.883766
vt 1163.38 2102.05
f 17/49/18 19/47/18 16/66/18

vt 678.337 2102.05
f 20/67/18 16/66/18 19/47/18

usemtl Roofing_Slate_Dark
vn 0.386187 0.56468 0.729381
vt -19.4188 24.7394
vt -13.2588 24.7394
f 11/9/19 20/68/19 16/69/19

usemtl BackColor
vt 1163.38 2184.49
vn -0.386187 -0.56468 -0.729381
vt 678.337 2184.49
vt 920.857 2613.82
f 16/70/20 20/71/20 11/72/20

usemtl Roofing_Slate_Dark
vn -0.729299 0.564815 0.386144
vt -21.0086 27.3761
f 11/9/21 21/73/21 20/68/21

vt -22.5985 30.0127
f 21/73/21 11/9/21 13/74/21

usemtl BackColor
vt -796.287 2117.79
vn 0.729299 -0.564815 -0.386144
vt -1038.72 2117.79
vt -1038.72 2547.17
f 20/75/22 21/76/22 11/77/22

usemtl _9
vt -3.05172 9.93815
f 7/42/13 20/41/13 21/78/13

usemtl BackColor
vt -1281.16 104.097
f 7/79/14 20/46/14 6/45/14

vt -1038.72 2102.05
f 21/80/14 20/46/14 7/79/14

usemtl _9
vt -3.93685 9.93815
f 7/42/13 21/78/13 13/81/13

usemtl BackColor
vt -1281.16 2102.05
f 13/82/14 21/80/14 7/79/14

vt -1281.16 2117.79
f 13/83/22 11/77/22 21/76/22

f 13/57/8 7/22/8 14/21/8

usemtl Roofing_Slate_Dark
vt -11.6689 27.3761
vn 0.729299 0.564815 -0.386144
f 15/84/23 11/9/23 16/69/23

f 11/9/23 15/84/23 12/10/23

usemtl BackColor
vt 796.287 1077.56
vn -0.729299 -0.564815 0.386144
vt 1038.72 1506.94
vt 1038.72 1077.56
f 16/85/24 11/86/24 15/87/24

vt 1281.16 1077.56
f 12/88/24 15/87/24 11/86/24

usemtl FrontColor
vt 542.103 1462.36
f 12/59/15 22/61/15 15/89/15

usemtl BackColor
f 15/89/16 22/61/16 12/59/16

usemtl FrontColor
f 22/61/15 16/63/15 15/89/15

usemtl BackColor
f 15/89/16 16/63/16 22/61/16

f 8/8/4 5/5/4 6/6/4

g Mesh7 Group1 Model

usemtl Roofing_Slate_Dark
v -33.3929 49.6388 19.9091
vt 0.966398 9.52288
vn -0.386232 0.564539 -0.729466
v -25.0751 58.6388 22.4703
vt 4.04927 14.971
v -22.5137 49.6388 14.1489
vt -2.20937 14.7953
f 23/90/25 24/91/25 25/92/25

v -33.4017 49.6388 19.9138
vt 0.968978 9.5186
f 24/91/25 23/90/25 26/93/25

usemtl BackColor
vt -1163.38 1664.3
vn 0.386232 -0.564539 0.729466
vt -920.955 2093.58
vt -678.731 1664.3
f 25/94/26 24/95/26 23/96/26

usemtl Roofing_Slate_Dark
vn 0.729393 0.564659 -0.386194
v -19.6333 49.6388 19.589
vt 8.8743 17.5102
vt 7.44093 20.2339
f 24/91/27 27/97/27 25/98/27

v -16.7529 49.6388 25.0291
vt 10.3077 14.7866
f 27/97/27 24/91/27 28/99/27

usemtl BackColor
vt -359.369 1077.96
vn -0.729393 -0.564659 0.386194
vt -117.024 1507.29
vt -117.024 1077.96
f 28/100/28 24/101/28 27/102/28

usemtl Roofing_Slate_Dark
vn 0.386232 0.564539 0.729466
v -27.6321 49.6388 30.7893
vt 7.12456 9.5186
f 24/91/29 29/103/29 28/99/29

vn -0.729079 0.564659 0.386786
v -30.5169 49.6388 25.3516
vt 4.04677 9.5186
f 24/91/30 30/104/30 29/103/30

f 30/104/30 24/91/30 26/93/30

usemtl BackColor
vt 359.921 2117.96
vn 0.729079 -0.564659 -0.386786
vt 117.575 2117.96
vt 117.772 2547.29
f 29/105/31 30/106/31 24/107/31

usemtl FrontColor
vt 767.998 -2.26961e-009
vn 2.04204e-012 1 -1.08014e-012
v -30.5125 49.6388 25.3492
vt 654.598 214.177
vt 654.424 214.085
f 29/108/32 31/109/32 30/110/32

usemtl BackColor
vn -2.04204e-012 -1 1.08014e-012
f 30/110/33 31/109/33 29/108/33

usemtl FrontColor
vt 541.197 428.354
vn 2.0416e-012 1 -1.08097e-012
f 23/111/34 30/110/34 31/109/34

vt 540.849 428.169
f 30/110/34 23/111/34 26/112/34

usemtl BackColor
vn -2.0416e-012 -1 1.08097e-012
f 26/112/35 23/111/35 30/110/35

vt -678.337 1664.3
f 26/113/26 23/96/26 24/95/26

usemtl _9
vt 11.25 9.93815
vn -0.46793 7.03662e-022 -0.883766
v -33.4017 37.3188 19.9138
vt 11.2514 7.47157
vt 11.2514 9.93815
f 23/114/36 32/115/36 26/116/36

v -33.3929 37.3188 19.9091
vt 11.25 7.47157
f 32/115/36 23/114/36 33/117/36

usemtl BackColor
vt -678.731 1617.01
vn 0.46793 -7.03662e-022 0.883766
vt -678.731 2102.05
vt -678.337 1617.01
f 33/118/37 23/119/37 32/120/37

usemtl _9
vt 9.48055 9.93815
vn -0.46793 -3.80494e-015 -0.883766
f 25/121/38 33/117/38 23/114/38

v -33.3929 25.0088 19.9091
vt 11.25 5.00699
f 25/121/38 34/122/38 33/117/38

v -22.5137 25.0088 14.1489
vt 9.48055 5.00699
f 34/122/38 25/121/38 35/123/38

usemtl BackColor
vt -1163.38 1132.37
vn 0.46793 3.80494e-015 0.883766
vt -678.731 1132.37
f 35/124/39 25/56/39 34/125/39

usemtl _9
vt -1.1679 9.93815
vn 0.883766 -2.35879e-015 -0.46793
vt -0.283097 5.00699
vt -0.283097 9.93815
f 27/126/40 35/127/40 25/128/40

v -22.5137 -2.64447 14.1489
vt -0.283097 -0.529449
f 35/127/40 27/126/40 36/129/40

usemtl BackColor
vt 125.322 2102.05
vn -0.883766 2.35879e-015 0.46793
vt 125.322 1132.37
vt -117.024 2102.05
f 25/130/41 35/131/41 27/132/41

vt 125.322 43.6592
f 36/133/41 27/132/41 35/131/41

usemtl _9
vt -0.283097 -0.75147
f 27/126/40 1/134/40 36/129/40

vt -2.0527 9.93815
f 28/135/40 1/134/40 27/126/40

v -16.7529 11.1821 25.0291
vt -2.0527 2.23877
f 37/136/40 1/134/40 28/135/40

vt -2.0527 -0.75147
f 1/134/40 37/136/40 4/137/40

usemtl BackColor
vt -359.369 2.80101e-012
vt -359.369 588.014
vt 125.322 2.74416e-012
f 4/138/41 37/139/41 1/140/41

usemtl _9
vt -3.81164 2.23877
vn 0.46793 -4.64976e-016 0.883766
vt -5.58108 -0.75147
vt -3.81164 -0.75147
f 37/141/42 2/142/42 4/143/42

vt -5.58108 9.93815
f 2/142/42 37/141/42 29/144/42

usemtl BackColor
vt 1163.38 2.23941e-013
vn -0.46793 4.64976e-016 -0.883766
vt 678.731 1.53134e-012
vt 1163.38 588.014
f 4/145/43 2/146/43 37/147/43

usemtl FrontColor
f 2/2/1 1/1/1 4/4/1

f 1/1/1 2/2/1 3/3/1

usemtl BackColor
f 3/3/2 2/2/2 1/1/2

usemtl _9
vt 2.0527 9.93815
vn -0.883766 6.73728e-016 0.46793
vt 0.283097 -0.75147
vt 2.0527 -0.75147
f 29/148/44 3/149/44 2/150/44

vt 1.1679 9.93815
f 3/149/44 29/148/44 31/151/44

usemtl BackColor
vt 359.369 1.82152e-012
vn 0.883766 -6.73728e-016 -0.46793
vt -125.322 1.73626e-012
vt 359.369 2102.05
f 2/152/45 3/153/45 29/154/45

vt 117.024 2102.05
f 31/155/45 29/154/45 3/153/45

usemtl FrontColor
vt 767.998 -3.47947e-013
vn 3.13396e-015 1 -5.98196e-016
v -25.0751 49.6388 22.4703
vt 868.667 327.521
f 29/156/46 38/157/46 31/109/46

vt 1196.31 226.78
f 38/157/46 29/156/46 28/158/46

usemtl BackColor
vn -3.13396e-015 -1 5.98196e-016
f 31/109/47 38/157/47 29/156/47

usemtl FrontColor
vt 969.51 655.134
vn 2.68314e-015 1 -1.95095e-015
f 25/159/48 31/109/48 38/157/48

f 31/109/48 25/159/48 23/111/48

usemtl BackColor
vn -2.68314e-015 -1 1.95095e-015
f 23/111/49 25/159/49 31/109/49

f 23/119/39 33/118/39 25/56/39

usemtl _9
vt 0.283097 5.00699
vt 0.283097 9.93815
vt 0.283097 7.47157
f 34/160/44 23/161/44 33/162/44

f 34/160/44 31/151/44 23/161/44

vt 0.283097 -0.529449
f 31/151/44 34/160/44 9/163/44

usemtl BackColor
vt -125.322 43.6592
vt -125.322 1132.37
f 9/164/45 34/165/45 31/155/45

usemtl FrontColor
vn -0.46793 -2.51794e-015 -0.883766
vt -678.731 43.6592
f 32/120/50 34/125/50 9/166/50

f 34/125/50 32/120/50 33/118/50

usemtl BackColor
vn 0.46793 2.51794e-015 0.883766
f 9/166/51 34/125/51 32/120/51

usemtl _9
v -22.5137 16.6725 14.1489
vt 3.81164 3.33799
vn -0.46793 1.79802e-015 -0.883766
vt 5.58108 -0.529449
vt 5.58108 5.00699
f 39/167/52 9/168/52 34/169/52

vt 3.81164 -0.529449
f 36/170/52 9/168/52 39/167/52

vt 5.58108 -0.75147
f 36/170/52 3/171/52 9/168/52

vt 3.81164 -0.75147
f 3/171/52 36/170/52 1/172/52

usemtl BackColor
vt -1163.38 -2.25332e-013
vn 0.46793 -1.79802e-015 0.883766
vt -1163.38 43.6592
vt -678.731 1.05364e-012
f 1/173/53 36/174/53 3/175/53

f 36/133/41 1/140/41 27/132/41

vt -359.369 2102.05
f 27/132/41 1/140/41 28/176/41

f 28/176/41 1/140/41 37/139/41

usemtl _9
f 29/144/42 37/141/42 28/64/42

usemtl BackColor
vt 678.731 2102.05
f 29/177/43 37/147/43 2/146/43

f 28/66/43 37/147/43 29/177/43

vt 1163.38 1532.17
vn -0.386232 -0.564539 -0.729466
vt 678.731 1532.17
vt 920.955 1961.45
f 28/178/54 29/179/54 24/180/54

f 28/158/47 29/156/47 38/157/47

usemtl FrontColor
vt 1082.91 440.957
f 38/157/46 28/158/46 27/181/46

usemtl BackColor
f 27/181/47 28/158/47 38/157/47

usemtl FrontColor
f 25/159/48 38/157/48 27/181/48

usemtl BackColor
f 38/157/49 31/109/49 25/159/49

f 27/181/49 38/157/49 25/159/49

vt 125.322 1077.96
f 25/182/28 27/102/28 24/101/28

f 9/166/53 3/175/53 36/174/53

usemtl FrontColor
v -33.3931 -2.64447 19.9093
vt 678.72 43.6592
vn 0.46793 -1.14255e-013 0.883766
vt 678.731 -1.30398e-011
vt 678.731 43.6592
f 40/183/55 3/184/55 9/185/55

usemtl BackColor
vn -0.46793 1.14255e-013 -0.883766
f 9/185/56 3/184/56 40/183/56

usemtl _9
f 3/149/44 31/151/44 9/163/44

usemtl BackColor
f 9/164/45 31/155/45 3/153/45

vt -1163.38 804.17
f 39/186/53 9/166/53 36/174/53

f 34/125/53 9/166/53 39/186/53

usemtl _9
vt 3.81164 5.00699
f 39/167/52 34/169/52 35/187/52

usemtl BackColor
f 35/124/53 34/125/53 39/186/53

usemtl _9
vt -0.283097 3.33799
f 39/188/40 35/127/40 36/129/40

usemtl BackColor
vt 125.322 804.17
f 36/133/41 35/131/41 39/189/41

f 33/118/51 32/120/51 34/125/51

f 33/118/39 34/125/39 25/56/39

vt -125.322 1617.01
vt -125.322 2102.05
f 33/190/45 23/191/45 34/165/45

f 23/191/45 31/155/45 34/165/45

f 31/109/35 30/110/35 23/111/35

f 4/4/2 1/1/2 2/2/2

f 26/57/37 32/120/37 23/119/37

vt -124.771 2117.96
f 26/192/31 24/107/31 30/106/31

g Mesh8 Group1 Model

l 13 11

l 13 12

l 7 13

l 5 7

l 14 5

l 14 12

l 11 12

l 11 16

l 11 20

l 22 11

l 22 15

l 21 22

l 20 21

l 19 20

l 19 6

l 6 7

l 6 8

l 18 8

l 17 18

l 17 16

l 16 20

l 15 16

l 12 15

l 8 5

l 21 13

g Mesh9 Group1 Model

l 24 25

l 24 26

l 24 28

l 24 29

l 38 24

l 38 31

l 27 38

l 27 28

l 25 27

l 23 25

l 26 23

l 30 26

l 29 30

l 29 31

l 28 29

l 37 28

l 37 4

l 2 4

l 2 29

l 3 2

l 9 3

l 34 9

l 33 34

l 23 33

l 31 23

l 31 30

l 32 33

l 32 26

l 32 9

l 3 40

l 1 3

l 4 1

l 36 1

l 36 39

l 39 35

l 35 25

l 40 10

