# Alias OBJ Model File
# Exported from SketchUp, (c) 2000-2012 Trimble Navigation Limited
# File units = meters

mtllib tourAncienne.mtl

g Mesh1 tourAncienne1 Model

usemtl FrontColor
v -0.4 4 -3.3
vt 19.685 138.484
vn 1.78568e-031 -0.376465 0.926431
v -0.9 2.76957 -3.8
vt 7.5885e-030 86.1947
v 0.1 2.76957 -3.8
vt 39.3701 86.1947
f 1/1/1 2/2/1 3/3/1

usemtl _6
vt 0.333333 0.794773
vn -1.78568e-031 0.376465 -0.926431
vt -3 0.794773
vt -1.33333 1.72459
f 3/4/2 2/5/2 1/6/2

usemtl _2
v 0.1 -1.08287e-015 -3.8
vt 0.00202747 0.000733866
vn 0 0 -1
vt 0.997449 0.999266
vt 0.00202747 0.999266
f 4/7/3 2/8/3 3/9/3

v -0.9 -1.08287e-015 -3.8
vt 0.997449 0.000733866
f 2/8/3 4/7/3 5/10/3

usemtl BackColor
vt -7.10543e-015 0
vn -0 -0 1
vt -39.3701 0
vt 0 109.038
f 5/11/4 4/12/4 2/13/4

usemtl FrontColor
vt -39.3701 39.3701
vn 3.60956e-016 -1 -0
v -0.9 -1.08287e-015 -2.8
vt -7.10543e-015 39.3701
f 4/14/5 6/11/5 5/15/5

v 0.1 -1.08287e-015 -2.8
f 6/11/5 4/14/5 7/12/5

usemtl BackColor
vn -3.60956e-016 1 0
f 5/15/6 6/11/6 4/14/6

usemtl _2
vt -3.00458 -1.06265e-018
vn -1 -3.60956e-016 -0
vt -4 0.998533
vt -4 -2.36889e-032
f 6/16/7 2/17/7 5/18/7

v -0.9 2.76957 -2.8
vt -3.00458 0.998533
f 2/17/7 6/16/7 8/19/7

usemtl BackColor
vn 1 3.60956e-016 0
vt 0 -2.56474e-030
vt -39.3701 109.038
f 8/13/8 6/20/8 2/21/8

usemtl _2
vt -1 0
vn 0 0 1
v 0.1 2.76957 -2.8
vt -0.0045781 0.998533
vt -1 0.998533
f 6/22/9 9/23/9 8/24/9

vt -0.0045781 0
f 9/23/9 6/22/9 7/25/9

usemtl BackColor
vt 39.3701 0
vn -0 -0 -1
vt 7.10543e-015 0
vt 39.3701 109.038
f 7/26/10 6/27/10 9/28/10

f 7/12/6 4/14/6 6/11/6

usemtl _2
vt 3.99542 0
vn 1 3.60956e-016 -0
vt 3 0.998533
vt 3 0
f 4/29/11 9/30/11 7/31/11

vt 3.99542 0.998533
f 9/30/11 4/29/11 3/32/11

usemtl BackColor
vt 0 -1.42109e-014
vn -1 -3.60956e-016 0
vt 39.3701 -1.42109e-014
f 7/33/12 9/13/12 4/34/12

f 3/28/12 4/34/12 9/13/12

f 3/21/4 2/13/4 4/12/4

usemtl FrontColor
vt 0 39.3701
vn 0 1 -0
v -0.4 2.76957 -3.3
vt 19.685 19.685
vt 39.3701 39.3701
f 2/35/13 10/36/13 3/37/13

vt 0 0
f 10/36/13 2/35/13 8/38/13

usemtl BackColor
vn -0 -1 0
f 8/38/14 2/35/14 10/36/14

usemtl FrontColor
vt 39.3701 101.016
vn 0.926431 -0.376465 1.06847e-017
vt 19.685 153.305
vt -4.93038e-032 101.016
f 2/39/15 1/40/15 8/41/15

usemtl _6
vt 9.33333 1.55909
vn -0.926431 0.376465 -1.06847e-017
vt 11 2.48892
vt 12.6667 1.55909
f 8/42/16 1/43/16 2/44/16

usemtl FrontColor
vt -27.8388 157.48
vn -0.707107 -3.39472e-017 -0.707107
vt -27.8388 109.038
f 1/45/17 10/46/17 8/13/17

usemtl BackColor
vn 0.707107 3.39472e-017 0.707107
f 8/13/18 10/46/18 1/45/18

usemtl FrontColor
f 9/26/13 10/36/13 8/38/13

f 10/36/13 9/26/13 3/37/13

usemtl BackColor
f 8/38/14 10/36/14 9/26/14

f 3/37/14 9/26/14 10/36/14

usemtl _6
vt 12.6667 1.76994
vn 0.926431 0.376465 -4.46598e-017
vt 11 2.69976
vt 9.33333 1.76994
f 3/47/19 1/48/19 9/49/19

usemtl BackColor
vt -1.89789e-015 86.1947
vn -0.926431 -0.376465 4.46598e-017
f 9/50/20 1/1/20 3/3/20

usemtl _6
vt -1.33333 3.46409
vn -8.81465e-033 0.376465 0.926431
vt -3 2.53426
vt 0.333333 2.53426
f 1/51/21 8/52/21 9/53/21

usemtl BackColor
vn 8.81465e-033 -0.376465 -0.926431
vt 0 101.016
f 9/39/22 8/54/22 1/40/22

f 8/13/10 9/28/10 6/27/10

usemtl FrontColor
vt -55.6777 109.038
vn -0.707107 0 -0.707107
f 3/55/23 10/46/23 1/45/23

usemtl BackColor
vn 0.707107 -0 0.707107
f 1/45/24 10/46/24 3/55/24

f 3/37/14 10/36/14 2/35/14

vt -39.3701 -2.56474e-030
f 5/56/8 2/21/8 6/20/8

g Mesh2 tourAncienne1 Model

l 1 2

l 1 3

l 1 8

l 10 1

l 10 8

l 3 10

l 3 2

l 9 3

l 8 9

l 2 8

l 2 5

l 5 6

l 4 5

l 7 4

l 9 7

l 9 1

l 6 7

l 8 6

l 3 4

