# Alias OBJ Model File
# Exported from SketchUp, (c) 2000-2012 Trimble Navigation Limited
# File units = meters

mtllib tourAncienne15.mtl

g Mesh1 Group1 Model

usemtl FrontColor
v -21.5534 25.4889 -12.9438
vt 108.632 858.838
vn -0.239778 -0.376465 0.894864
v -23.8063 17.6483 -16.846
vt -16.8054 525.64
v -17.6513 17.6483 -15.1967
vt 234.069 525.64
f 1/1/1 2/2/1 3/3/1

usemtl _6
vt 0.333333 0.794773
vn 0.239778 0.376465 -0.894864
vt -3 0.794773
vt -1.33333 1.72459
f 3/4/2 2/5/2 1/6/2

usemtl FrontColor
vt 64.9312 307.258
vn 0 1 -0
v -21.5534 17.6483 -12.9438
vt 153.629 153.629
vt 307.258 242.326
f 2/7/3 4/8/3 3/9/3

v -25.4556 17.6483 -10.6909
vt 0 64.9312
f 4/8/3 2/7/3 5/10/3

usemtl BackColor
vn -0 -1 0
f 5/10/4 2/7/4 4/8/4

usemtl _2
vt -4 0.998533
vn -0.965926 -3.60956e-016 -0.258819
v -25.4556 -6.4972e-015 -10.6909
vt -3.00458 -1.06265e-018
vt -3.00458 0.998533
f 2/11/5 6/12/5 5/13/5

v -23.8063 -6.4972e-015 -16.846
vt -4 -1.17097e-031
f 6/12/5 2/11/5 7/14/5

usemtl BackColor
vt -62.7187 694.814
vn 0.965926 3.60956e-016 0.258819
vt -62.7187 6.06601e-015
vt -313.593 694.814
f 5/15/6 6/16/6 2/17/6

usemtl _2
vt -1 -7.25561e-032
vn -0.258819 0 0.965926
v -19.3005 17.6483 -9.04164
vt -0.0045781 0.998533
vt -1 0.998533
f 6/18/7 8/19/7 5/20/7

v -19.3005 -6.4972e-015 -9.04164
vt -0.0045781 -7.25561e-032
f 8/19/7 6/18/7 9/21/7

usemtl BackColor
vt 234.069 0
vn 0.258819 -0 -0.965926
vt -16.8054 0
vt 234.069 694.814
f 9/22/8 6/23/8 8/24/8

usemtl FrontColor
vt -64.9312 307.258
vn 3.48656e-016 -1 9.34222e-017
vt -242.326 7.89312e-030
f 7/25/9 9/26/9 6/10/9

v -17.6513 -6.4972e-015 -15.1967
vt -307.258 242.326
f 9/26/9 7/25/9 10/27/9

usemtl BackColor
vn -3.48656e-016 1 -9.34222e-017
f 6/10/10 9/26/10 7/25/10

f 10/27/10 7/25/10 9/26/10

usemtl _2
vt 0.997449 0.999266
vn 0.258819 0 -0.965926
vt 0.00202747 0.000733866
vt 0.997449 0.000733866
f 2/28/11 10/29/11 7/30/11

vt 0.00202747 0.999266
f 10/29/11 2/28/11 3/31/11

usemtl BackColor
vt 16.8054 0
vn -0.258819 -0 0.965926
vt -234.069 0
vt 16.8054 694.814
f 7/32/12 10/33/12 2/34/12

vt -234.069 694.814
f 3/35/12 2/34/12 10/33/12

f 3/9/4 4/8/4 2/7/4

usemtl FrontColor
vt 242.326 0
f 4/8/3 8/36/3 3/9/3

f 8/36/3 4/8/3 5/10/3

usemtl BackColor
f 5/10/4 4/8/4 8/36/4

usemtl FrontColor
vt -209.861 1003.5
vn -0.5 -3.39472e-017 -0.866025
vt -209.861 694.814
vt -32.4656 694.814
f 1/37/13 4/38/13 5/39/13

usemtl BackColor
vn 0.5 3.39472e-017 0.866025
f 5/39/14 4/38/14 1/37/14

usemtl FrontColor
vn -0.5 0 -0.866025
vt -387.256 694.814
f 1/37/15 3/40/15 4/38/15

usemtl BackColor
vn 0.5 -0 0.866025
f 4/38/16 3/40/16 1/37/16

f 3/9/4 8/36/4 4/8/4

usemtl _2
vt 3 0.998533
vt 3.99542 -1.72563e-031
vt 3.99542 0.998533
f 8/41/6 10/42/6 3/43/6

vt 3 -1.47911e-031
f 10/42/6 8/41/6 9/44/6

usemtl BackColor
vt 62.7187 -8.44887e-014
vt 62.7187 694.814
vt 313.593 -8.44887e-014
f 9/45/5 8/46/5 10/47/5

vt 313.593 694.814
f 3/48/5 10/47/5 8/46/5

usemtl _6
vt 12.6667 1.76994
vn 0.894864 0.376465 0.239778
vt 11 2.69976
vt 9.33333 1.76994
f 3/49/17 1/50/17 8/51/17

usemtl BackColor
vt 62.7187 555.578
vn -0.894864 -0.376465 -0.239778
vt 188.156 888.776
vt 313.593 555.578
f 8/52/18 1/53/18 3/54/18

usemtl _6
vt -1.33333 3.46409
vn -0.239778 0.376465 0.894864
vt -3 2.53426
vt 0.333333 2.53426
f 1/55/19 5/56/19 8/57/19

usemtl FrontColor
vt 313.593 637.37
vn 0.894864 -0.376465 0.239778
vt 188.156 970.569
vt 62.7187 637.37
f 2/58/20 1/59/20 5/60/20

usemtl _6
vt 9.33333 1.55909
vn -0.894864 0.376465 -0.239778
vt 11 2.48892
vt 12.6667 1.55909
f 5/61/21 1/62/21 2/63/21

usemtl BackColor
vt 234.069 667.308
vn 0.239778 -0.376465 -0.894864
vt -16.8054 667.308
vt 108.632 1000.51
f 8/64/22 5/65/22 1/66/22

vt -16.8054 694.814
f 5/67/8 8/24/8 6/23/8

vt -313.593 6.06601e-015
f 7/68/6 2/17/6 6/16/6

g Mesh2 Group1 Model

l 1 2

l 1 3

l 1 5

l 4 1

l 4 5

l 3 4

l 3 2

l 8 3

l 8 9

l 5 8

l 2 5

l 2 7

l 7 6

l 10 7

l 9 10

l 6 9

l 5 6

l 3 10

l 8 1

