# Alias OBJ Model File
# Exported from SketchUp, (c) 2000-2012 Trimble Navigation Limited
# File units = meters

mtllib transeptO.mtl

g Mesh1 Transept_ottonien Model

usemtl _9
v 22.6898 25.0087 -50.4386
vt -2.38606 5.00699
vn -0.46793 2.55606e-016 -0.883766
v 37.0598 -3.75342 -58.0471
vt -4.72328 -0.75147
v 22.6898 -3.75342 -50.4386
vt -2.38606 -0.75147
f 1/1/1 2/2/1 3/3/1

v 37.0598 25.0087 -58.0471
vt -4.72328 5.00699
f 2/2/1 1/1/1 4/4/1

usemtl BackColor
vt -892.357 5.23793e-014
vn 0.46793 -2.55606e-016 0.883766
vt -1532.51 5.23793e-014
vt -892.357 1132.37
f 3/5/2 2/6/2 1/7/2

usemtl Roofing_Slate_Dark
vt -18.5299 29.0236
vn -3.80098e-017 -1 2.29831e-017
v 48.3367 -3.75342 -1.99999
vt -24.1684 0.999995
vt -11.3449 25.2193
f 2/8/3 5/9/3 3/10/3

v 48.3461 -3.75342 -36.731
vt -24.1731 18.3655
f 5/9/3 2/8/3 6/11/3

usemtl BackColor
vt 1.83652e-029 1907.03
vn 3.80098e-017 1 -2.29831e-017
vt -1009.72 -1.264e-029
vt -565.749 2206.58
f 3/12/4 5/13/4 2/14/4

usemtl _9
v 48.3367 25.0087 -1.99999
vt 5.49224 5.00699
vn -0.883766 1.5363e-016 0.46793
vt 5.49224 -0.75147
f 7/15/5 3/3/5 5/16/5

v 39.5017 25.0087 -18.6865
vt 2.77826 5.00699
f 3/3/5 7/15/5 8/17/5

usemtl BackColor
vt 472.479 6.48684e-013
vn 0.883766 -1.5363e-016 -0.46793
vt -1685.37 6.20262e-013
vt 472.479 1132.37
f 5/18/6 3/19/6 7/20/6

vt -270.874 1132.37
f 8/21/6 7/20/6 3/19/6

usemtl Roofing_Slate_Dark
v 55.5217 33.3488 -5.80426
vt -14.241 14.5544
vn -0.632833 0.698034 0.335068
vt -6.86226 6.27235
vt -8.50652 15.5686
f 9/22/7 8/23/7 7/24/7

v 31.527 25.0087 -33.7481
vt -5.37811 -2.11866
f 9/22/7 10/25/7 8/23/7

v 29.8748 33.3488 -54.2429
vt -9.46795 -12.4314
f 11/26/7 10/25/7 9/22/7

vt -3.73346 -11.4172
f 10/25/7 11/26/7 1/27/7

usemtl BackColor
vt -1685.37 1433.74
vn 0.632833 -0.698034 -0.335068
vt -1685.37 1892.29
vt -941.839 1433.74
f 1/28/8 11/29/8 10/30/8

usemtl _9
vt -3.55467 6.67673
f 4/4/1 1/1/1 11/31/1

usemtl BackColor
vt -1532.51 1132.37
f 4/32/2 1/7/2 2/6/2

vt -1212.44 1460.72
f 11/33/2 1/7/2 4/32/2

usemtl Roofing_Slate_Dark
vn 0.632833 0.698034 -0.335068
vt -15.2024 -13.4457
f 9/22/9 4/34/9 11/26/9

v 45.897 25.0087 -41.3566
vt -16.8471 -4.14721
f 4/34/9 9/22/9 12/35/9

usemtl BackColor
vt 1685.37 199.645
vn -0.632833 -0.698034 0.335068
vt 1685.37 -258.898
vt -472.479 199.645
f 11/36/10 4/37/10 9/38/10

vt 941.839 -258.898
f 12/39/10 9/38/10 4/37/10

usemtl Roofing_Slate_Dark
v 48.3461 25.0087 -36.731
vt -17.3029 -1.57021
f 12/35/9 9/22/9 13/40/9

usemtl BackColor
vt 735.776 -258.898
f 13/41/10 9/38/10 12/39/10

usemtl Roofing_Slate_Dark
v 53.8717 25.0087 -26.2951
vt -18.3312 4.2438
f 13/40/9 9/22/9 14/42/9

usemtl BackColor
vt 270.874 -258.898
f 14/43/10 9/38/10 13/41/10

usemtl Roofing_Slate_Dark
v 62.7067 25.0087 -9.60853
vt -19.9755 13.5401
f 14/42/9 9/22/9 15/44/9

usemtl BackColor
vt -472.479 -258.898
f 15/45/10 9/38/10 14/43/10

usemtl _9
vn 0.46793 6.80808e-017 0.883766
vt 7.82945 5.00699
vt 6.66084 6.67673
f 7/15/11 15/46/11 9/47/11

f 5/16/11 15/46/11 7/15/11

v 62.7067 -3.75342 -9.60853
vt 7.82945 -0.75147
f 15/46/11 5/16/11 16/48/11

usemtl BackColor
vt 1532.51 4.79424e-013
vn -0.46793 -6.80808e-017 -0.883766
vt 892.357 4.79424e-013
vt 1532.51 1132.37
f 16/49/12 5/50/12 15/51/12

usemtl FrontColor
vt -1575.47 299.549
vn 5.14161e-017 -1 9.71081e-017
vt -1009.72 -4.46382e-029
v 59.6324 -3.75342 -15.4149
vt -1454.44 528.145
f 16/52/13 5/53/13 17/54/13

usemtl BackColor
vn -5.14161e-017 1 -9.71081e-017
f 17/54/14 5/53/14 16/52/14

usemtl Roofing_Slate_Dark
vt -29.8162 7.70743
f 5/9/3 6/11/3 17/55/3

usemtl BackColor
vt -1010.09 1367.36
f 6/56/4 2/14/4 5/13/4

usemtl _9
vn 0.883766 1.48253e-015 -0.46793
v 45.897 6.68658 -41.3566
vt -7.4379 1.33872
vt -8.19024 -0.75147
f 2/2/15 18/57/15 6/58/15

v 40.0966 6.68658 -52.3116
vt -5.65613 1.33872
f 18/57/15 2/2/15 19/59/15

usemtl BackColor
vt 735.776 -1.78883e-012
vn -0.883766 -1.48253e-015 0.46793
vt 941.839 411.024
vt 1685.37 -1.78883e-012
f 6/60/16 18/61/16 2/62/16

usemtl _9
vt -7.4379 5.00699
f 12/63/15 6/58/15 18/57/15

vt -8.19024 5.00699
f 6/58/15 12/63/15 13/64/15

usemtl BackColor
vt 735.776 1132.37
vt 941.839 1132.37
f 13/65/16 12/66/16 6/60/16

usemtl _9
vn 0.883766 0 -0.46793
v 48.3461 30.1587 -36.731
vt -8.19024 6.03805
f 12/63/17 20/67/17 13/64/17

usemtl BackColor
vn -0.883766 -0 0.46793
vt 735.776 1335.12
f 13/65/18 20/68/18 12/66/18

usemtl _9
v 49.8615 33.345 -33.869
vt -8.65572 6.67598
vn 0.883766 5.67686e-016 -0.46793
f 21/69/19 13/64/19 20/67/19

vt -9.88759 5.00699
f 13/64/19 21/69/19 14/70/19

usemtl BackColor
vt 270.874 1132.37
vn -0.883766 -5.67686e-016 0.46793
vt 608.281 1460.57
f 14/71/20 21/72/20 13/65/20

usemtl FrontColor
v 48.3461 37.3188 -36.731
vt 735.776 1617.01
vn 0.883766 4.66911e-016 -0.46793
f 22/73/21 14/71/21 21/72/21

v 53.8717 37.3188 -26.2951
vt 270.874 1617.01
f 14/71/21 22/73/21 23/74/21

usemtl _9
vt -9.88759 7.47157
vn -0.883766 -4.66911e-016 0.46793
vt -8.19024 7.47157
f 23/75/22 22/76/22 14/70/22

usemtl FrontColor
vt -1227.63 956.499
vn 0 -1 -0
v 45.9013 37.3188 -41.3589
vt -913.839 1549.56
f 23/77/23 22/56/23 24/78/23

usemtl _9
vt 0.779153 9.93815
vn -0 1 0
vt 1.53149 9.93912
vt 3.22884 9.93912
f 24/79/24 22/80/24 23/81/24

usemtl FrontColor
v 51.3453 37.3188 -44.2414
vt -1128.17 1663.05
f 25/82/23 23/77/23 24/78/23

v 55.3326 37.3188 -36.7106
vt -1285.15 1366.56
f 23/77/23 25/82/23 26/83/23

usemtl _9
vt 0.779153 8.70486
f 24/79/24 23/81/24 25/84/24

usemtl FrontColor
vt 942.277 2226.3
vn 0.663441 -0.660775 -0.351031
v 55.3326 44.3188 -36.7106
vt 606.864 2593.47
vt 271.313 2226.3
f 24/85/25 27/86/25 23/87/25

usemtl Roofing_Slate_Dark
vt 12.2549 -19.0394
vn -0.663441 0.660775 0.351031
vt 10.7275 -25.1689
vt 4.7614 -23.0963
f 23/88/26 27/89/26 24/90/26

usemtl FrontColor
vt -1775.23 1669.89
vn -0.297024 -0.772708 -0.56098
v 59.32 37.3188 -29.1798
vt -1775.23 1235.72
vt -1532.51 1235.72
f 27/91/27 28/92/27 23/93/27

v 64.764 37.3188 -32.0622
vt -2017.75 1235.72
f 28/92/27 27/91/27 29/94/27

usemtl Roofing_Slate_Dark
vn 0.297024 0.772708 0.56098
vt 14.5019 -21.1494
f 23/88/28 28/95/28 27/89/28

usemtl FrontColor
vt -1442.13 1070.07
f 23/77/23 26/83/23 28/96/23

usemtl _9
vt 2.004 8.70486
f 26/97/24 25/84/24 23/81/24

usemtl FrontColor
v 56.7893 37.3188 -47.1238
vt -1342.5 1776.53
f 30/98/23 26/83/23 25/82/23

f 26/83/23 30/98/23 28/96/23

usemtl _9
vt 0.779153 7.47157
f 25/84/24 26/97/24 30/99/24

vt 3.22884 8.70486
f 28/100/24 30/99/24 26/97/24

usemtl FrontColor
vt -1656.46 1183.55
f 28/96/23 30/98/23 29/101/23

usemtl _9
vt 3.22884 7.47157
f 29/102/24 30/99/24 28/100/24

usemtl FrontColor
vt -941.839 -119.064
vn -0.663455 -0.660628 0.351281
vt -270.874 -119.064
vt -606.357 248.04
f 30/103/29 29/104/29 27/105/29

usemtl Roofing_Slate_Dark
vn 0.663455 0.660628 -0.351281
vt 14.265 -30.401
vt 5.83429 -29.1622
f 27/89/30 29/106/30 30/107/30

vt 16.7472 -23.2578
f 29/108/28 27/89/28 28/95/28

usemtl FrontColor
vt -2017.75 1617.01
vn -0.46793 3.71869e-015 -0.883766
vt -1532.51 1617.01
vt -1775.23 1617.01
f 29/109/31 23/110/31 28/111/31

f 29/109/31 14/32/31 23/110/31

v 53.8717 13.6277 -26.2951
vt -1532.51 684.295
f 29/109/31 31/112/31 14/32/31

v 64.764 13.6277 -32.0622
vt -2017.75 684.295
f 31/112/31 29/109/31 32/113/31

usemtl _9
vt -11.6592 2.72839
vn 0.46793 -3.71869e-015 0.883766
vt -11.6592 7.47157
vt -9.88759 2.72839
f 32/114/32 29/115/32 31/116/32

vt -7.4379 7.47157
vn 0.883766 -3.04784e-015 -0.46793
f 30/117/33 29/75/33 32/116/33

usemtl BackColor
vt 270.874 684.295
vn -0.883766 3.04784e-015 0.46793
vt 941.839 1617.01
f 32/118/34 29/74/34 30/119/34

usemtl _9
v 56.7893 -3.75342 -47.1238
vt -7.4379 -0.75147
f 32/116/33 33/120/33 30/117/33

v 64.764 -3.75342 -32.0622
vt -9.88759 -0.75147
f 32/116/33 34/121/33 33/120/33

v 70.5247 6.68658 -21.182
vt -11.6572 1.33872
f 35/122/33 34/121/33 32/116/33

v 70.5247 -3.75342 -21.182
vt -11.6572 -0.75147
f 34/121/33 35/122/33 36/123/33

usemtl BackColor
vt -213.817 6.63294e-012
vt -213.817 411.024
vt 270.874 6.49083e-012
f 36/124/34 35/125/34 34/126/34

usemtl _9
vt -9.88562 1.33872
vn 0.46793 -9.63966e-019 0.883766
vt -9.88562 -0.75147
f 35/127/35 17/123/35 36/128/35

v 59.6324 6.68658 -15.4149
f 17/123/35 35/127/35 37/122/35

usemtl BackColor
vt 2017.75 4.83375e-013
vn -0.46793 9.63966e-019 -0.883766
vt 1532.51 4.83375e-013
vt 2017.75 411.024
f 36/129/36 17/130/36 35/131/36

vt 1532.51 411.024
f 37/132/36 35/131/36 17/130/36

usemtl Roofing_Slate_Dark
vt 2.35617 -29.7774
vn 0.229812 0.87109 0.434038
vt -5.67566 -24.9399
vt -4.60235 -31.0081
f 32/133/37 37/134/37 35/135/37

vt 1.28286 -23.7091
f 37/134/37 32/133/37 31/136/37

usemtl BackColor
vt 1532.51 572.029
vn -0.229812 -0.87109 -0.434038
vt 2017.75 572.029
vt 1532.51 15.6095
f 31/137/38 32/138/38 37/139/38

vt 2017.75 15.6095
f 35/140/38 37/139/38 32/138/38

f 32/118/34 34/126/34 35/125/34

vt 941.839 6.49083e-012
f 33/141/34 34/126/34 32/118/34

usemtl FrontColor
v 53.8717 -3.75342 -26.2951
vn -1.21206e-016 -1 1.13262e-016
f 38/77/39 33/98/39 34/101/39

f 6/56/39 33/98/39 38/77/39

v 45.9013 -3.75342 -41.3589
f 33/98/39 6/56/39 39/78/39

usemtl BackColor
vn 1.21206e-016 1 -1.13262e-016
f 39/78/40 6/56/40 33/98/40

f 38/77/40 33/98/40 6/56/40

f 34/101/40 33/98/40 38/77/40

usemtl Roofing_Slate_Dark
vt -26.9358 13.1475
f 17/55/3 6/11/3 38/142/3

usemtl BackColor
f 17/54/4 6/56/4 5/13/4

f 38/77/4 6/56/4 17/54/4

usemtl _9
vn 0.883766 -7.4095e-016 -0.46793
v 53.8717 6.68658 -26.2951
vt -9.88759 1.33872
f 6/58/41 40/143/41 38/121/41

f 40/143/41 6/58/41 31/116/41

usemtl BackColor
vt 270.874 1.56184e-012
vn -0.883766 7.4095e-016 0.46793
vt 270.874 411.024
vt 735.776 1.61869e-012
f 38/144/42 40/145/42 6/146/42

f 31/118/42 6/146/42 40/145/42

usemtl _9
f 31/116/41 6/58/41 14/70/41

usemtl BackColor
f 14/71/42 6/146/42 31/118/42

usemtl _9
f 14/70/41 6/58/41 13/64/41

usemtl BackColor
f 13/65/42 6/146/42 14/71/42

usemtl FrontColor
vt 913.669 1549.47
vn -1.33324e-016 1 -3.2763e-016
vt 1227.63 956.499
vt 1010.09 1367.36
f 12/147/43 14/148/43 13/149/43

vt 661.884 656.95
f 12/147/43 8/150/43 14/148/43

vt 347.92 1249.93
f 8/150/43 12/147/43 10/151/43

usemtl BackColor
vn 1.33324e-016 -1 3.2763e-016
f 10/151/44 12/147/44 8/150/44

usemtl Roofing_Slate_Dark
v 35.4914 33.345 -26.2605
vt 11.1932 -13.7
vn -0.328186 0.71281 -0.619836
vt 18.4613 -20.6707
vt 17.0453 -12.665
f 41/152/45 12/153/45 10/154/45

vt 12.6092 -21.7058
f 12/153/45 41/152/45 21/155/45

usemtl BackColor
vt -892.357 122.844
vn 0.328186 -0.71281 0.619836
vt -1532.51 122.844
vt -892.357 590.792
f 10/156/46 12/157/46 41/158/46

vt -1532.51 590.792
f 21/159/46 41/158/46 12/157/46

usemtl Roofing_Slate_Dark
vt 5.30668 -14.7412
vn 0.326268 0.71682 0.616213
f 8/160/47 21/155/47 41/152/47

vt 6.72268 -22.7469
f 21/155/47 8/160/47 14/161/47

usemtl BackColor
vt 892.357 1454.42
vn -0.326268 -0.71682 -0.616213
vt 1532.51 1454.42
vt 892.357 983.721
f 41/162/48 21/163/48 8/164/48

vt 1532.51 983.721
f 14/165/48 8/164/48 21/163/48

f 14/148/44 8/150/44 12/147/44

f 13/149/44 14/148/44 12/147/44

usemtl _9
f 21/69/22 14/70/22 22/76/22

usemtl FrontColor
f 22/73/21 21/72/21 20/68/21

usemtl _9
f 20/67/22 21/69/22 22/76/22

usemtl Roofing_Slate_Dark
vt 14.846 -21.3101
f 12/153/45 21/155/45 20/166/45

usemtl BackColor
vt -1532.51 411.929
f 20/167/46 21/159/46 12/157/46

f 20/68/20 13/65/20 21/72/20

usemtl FrontColor
f 22/73/21 20/68/21 12/66/21

usemtl _9
f 12/63/22 20/67/22 22/76/22

usemtl FrontColor
v 45.897 37.3188 -41.3566
f 22/73/21 12/66/21 42/119/21

usemtl _9
f 42/117/22 12/63/22 22/76/22

vt 0.328566 5.00699
vn -0.883766 1.74669e-015 0.46793
vt 1.54638 6.67598
f 10/168/49 8/17/49 41/169/49

usemtl BackColor
vt -270.874 1433.74
vt 472.479 1892.29
f 8/170/8 10/30/8 9/171/8

vt -608.281 1460.57
vn 0.883766 -1.74669e-015 -0.46793
vt -941.839 1132.37
f 41/172/50 8/21/50 10/173/50

usemtl _9
f 3/3/5 8/17/5 10/168/5

usemtl BackColor
f 10/173/6 8/21/6 3/19/6

usemtl _9
f 3/3/5 10/168/5 1/1/5

usemtl BackColor
vt -1685.37 1132.37
f 1/174/6 10/173/6 3/19/6

f 9/171/8 10/30/8 11/29/8

vt 472.479 1433.74
f 7/175/8 8/170/8 9/171/8

vt 1212.44 1460.72
vt 892.357 1132.37
f 9/176/12 15/51/12 7/177/12

f 7/177/12 15/51/12 5/50/12

usemtl _9
vn 0.883766 -4.58589e-016 -0.46793
f 14/70/51 37/122/51 31/116/51

vt -12.6016 5.00699
f 15/178/51 37/122/51 14/70/51

f 15/178/51 17/123/51 37/122/51

vt -12.6016 -0.75147
f 17/123/51 15/178/51 16/179/51

usemtl BackColor
vt -472.479 1.21438e-012
vn -0.883766 4.58589e-016 0.46793
vt -472.479 1132.37
vt -213.817 1.18596e-012
f 16/180/52 15/181/52 17/182/52

f 37/125/52 17/182/52 15/181/52

f 14/71/52 37/125/52 15/181/52

f 31/118/52 37/125/52 14/71/52

usemtl _9
f 14/70/32 31/116/32 29/115/32

f 23/75/32 14/70/32 29/115/32

vt -10.7737 7.47157
f 28/183/32 23/75/32 29/115/32

f 28/100/24 26/97/24 23/81/24

usemtl FrontColor
vn 4.00659e-016 -1 3.81036e-016
v 50.9889 -3.75342 -58.0788
vt -1114.14 2207.83
f 39/78/53 43/184/53 33/98/53

v 40.1111 -3.75342 -52.3193
vt -685.88 1981.08
f 43/184/53 39/78/53 44/185/53

usemtl BackColor
vn -4.00659e-016 1 -3.81036e-016
f 44/185/54 39/78/54 43/184/54

usemtl FrontColor
vt -943.266 3.664e-013
vn -0.884201 1.6542e-017 0.467106
v 40.1111 6.68658 -52.3193
vt -1431.29 411.024
vt -1431.29 2.53395e-014
f 39/186/55 45/187/55 44/188/55

v 45.9013 6.68658 -41.3589
vt -943.266 411.024
f 45/187/55 39/186/55 46/189/55

usemtl BackColor
vn 0.884201 -1.6542e-017 -0.467106
f 46/189/56 39/186/56 45/187/56

f 44/188/56 45/187/56 39/186/56

usemtl _9
vt -3.88691 1.33872
vn -0.46793 1.34616e-017 -0.883766
vt -5.65613 -0.75147
vt -3.88691 -0.75147
f 45/190/57 43/191/57 44/192/57

v 50.9889 6.68658 -58.0788
f 43/191/57 45/190/57 47/59/57

usemtl BackColor
vt -1533.16 -1.92482e-014
vn 0.46793 -1.34616e-017 0.883766
vt -2017.75 1.51282e-013
vt -1533.16 411.024
f 44/193/58 43/194/58 45/195/58

vt -2017.75 411.024
f 47/196/58 45/195/58 43/194/58

usemtl Roofing_Slate_Dark
vt -21.7963 33.0613
vn -0.228618 0.872523 -0.431784
v 45.897 13.6277 -41.3566
vt -14.8001 34.2904
vt -22.8682 39.1215
f 45/197/59 48/198/59 47/199/59

vt -21.7949 33.0532
f 48/198/59 45/197/59 19/200/59

usemtl BackColor
vt -1532.51 -1046.77
vn 0.228618 -0.872523 0.431784
vt -1533.16 -1046.77
vt -1532.51 -487.448
f 19/201/60 45/202/60 48/203/60

usemtl FrontColor
vn -1.1571e-014 -1 7.17612e-015
vt -913.669 1549.47
vt -685.308 1980.77
f 45/185/61 18/204/61 19/205/61

f 18/204/61 45/185/61 46/78/61

usemtl BackColor
vn 1.1571e-014 1 -7.17612e-015
f 19/205/62 18/204/62 45/185/62

vt 1429.86 411.024
f 19/206/16 2/62/16 18/61/16

usemtl _9
f 4/4/15 19/59/15 2/2/15

vt -7.4379 2.72839
f 4/4/15 48/207/15 19/59/15

f 12/63/15 48/207/15 4/4/15

f 12/63/15 18/57/15 48/207/15

usemtl BackColor
f 18/61/16 6/60/16 12/66/16

vt 941.839 684.295
f 48/208/16 18/61/16 12/66/16

usemtl FrontColor
vn 0.46793 -5.7321e-015 0.883766
v 45.9013 13.6277 -41.3589
vt 1532.71 684.295
vt 1532.51 684.295
f 18/132/63 49/209/63 48/210/63

vt 1532.71 411.024
f 49/209/63 18/132/63 46/211/63

usemtl BackColor
vn -0.46793 5.7321e-015 -0.883766
f 46/211/64 18/132/64 49/209/64

f 46/78/62 45/185/62 18/204/62

f 48/210/64 49/209/64 18/132/64

usemtl Roofing_Slate_Dark
vt -14.8005 34.2928
f 47/199/59 48/198/59 49/212/59

usemtl BackColor
vt -2017.75 -1046.77
f 47/213/60 48/203/60 45/202/60

vt -1532.71 -487.448
f 49/214/60 48/203/60 47/213/60

usemtl Roofing_Slate_Dark
v 56.7893 13.6277 -47.1238
vt -15.8734 40.3587
f 47/199/59 49/212/59 50/215/59

usemtl BackColor
vt -2017.75 -487.448
f 50/216/60 49/214/60 47/213/60

usemtl FrontColor
vt 2017.75 1617.01
vn 0.46793 -2.26858e-015 0.883766
vt 2017.75 684.295
f 30/217/65 49/209/65 50/218/65

vt 1532.71 1617.01
f 49/209/65 30/217/65 24/219/65

usemtl _9
vt 0.779153 2.72839
vn -0.46793 2.26858e-015 -0.883766
vt -0.991726 2.72839
f 50/220/66 49/221/66 30/99/66

vt -0.991726 7.47157
f 24/222/66 30/99/66 49/221/66

usemtl FrontColor
vt 1775.23 1617.01
f 24/219/65 30/217/65 25/223/65

usemtl _9
vt -0.106287 7.47157
f 25/224/66 30/99/66 24/222/66

usemtl FrontColor
vt 1775.23 732.815
vn 0.297024 -0.772708 0.56098
vt 1775.23 298.651
vt 2017.75 298.651
f 27/225/67 25/226/67 30/227/67

vt 1532.71 298.651
f 25/226/67 27/225/67 24/228/67

usemtl Roofing_Slate_Dark
vn -0.297024 0.772708 -0.56098
vt 5.29784 -26.1292
f 24/90/68 27/89/68 25/229/68

f 30/107/68 25/229/68 27/89/68

usemtl _9
f 30/117/33 33/120/33 50/207/33

usemtl BackColor
f 30/119/34 33/141/34 32/118/34

f 50/208/34 33/141/34 30/119/34

usemtl _9
f 50/207/33 33/120/33 43/191/33

usemtl BackColor
vt 1429.86 6.3203e-012
f 43/230/34 33/141/34 50/208/34

f 33/98/54 43/184/54 39/78/54

usemtl _9
f 50/207/33 43/191/33 47/59/33

usemtl BackColor
f 47/206/34 43/230/34 50/208/34

vt 1685.37 1132.37
f 4/231/16 48/208/16 12/66/16

f 19/206/16 48/208/16 4/231/16

f 2/62/16 19/206/16 4/231/16

g Mesh2 Transept_ottonien Model

l 11 4

l 1 11

l 3 1

l 3 2

l 3 5

l 5 17

l 5 7

l 5 16

l 16 15

l 16 17

l 37 17

l 31 37

l 31 32

l 31 14

l 40 31

l 38 40

l 38 6

l 17 38

l 17 36

l 36 35

l 34 36

l 33 34

l 33 43

l 39 33

l 39 44

l 6 39

l 6 2

l 6 13

l 13 14

l 12 13

l 12 4

l 12 20

l 42 12

l 22 42

l 22 24

l 23 22

l 28 23

l 26 28

l 25 26

l 24 25

l 24 23

l 27 24

l 27 23

l 27 30

l 27 29

l 26 27

l 32 29

l 32 35

l 37 35

l 37 40

v 64.764 6.68658 -32.0622
l 40 51

l 29 28

l 30 29

l 25 30

l 50 30

l 50 47

l 50 49

l 49 48

l 49 24

l 46 49

l 39 46

l 46 45

l 46 18

v 56.7893 6.68658 -47.1238
l 52 46

l 18 19

l 18 48

l 48 19

l 45 19

l 44 45

l 44 43

l 43 47

l 47 45

l 14 23

l 15 14

l 9 15

l 9 11

l 7 9

l 7 8

l 8 10

l 41 8

l 10 41

l 10 1

l 10 12

l 41 21

l 21 14

l 20 21

l 13 20

l 8 14

l 2 4

l 34 38

v 58.3309 -3.75342 -17.8834
l 38 53

